<svg xmlns="http://www.w3.org/2000/svg" fill="none" viewBox="0 0 36 36">
  <path fill="#000" d="M16.5 6C10.1487 6 5 11.1487 5 17.5C5 23.8513 10.1487 29 16.5 29C19.0481 29 21.4125 28.1018 23.3033 26.6129L28.2929 31.6024C28.6834 31.993 29.3166 31.993 29.7071 31.6024C30.0976 31.2119 30.0976 30.5787 29.7071 30.1882L24.7175 25.1986C26.2064 23.3078 27.1046 20.9434 27.1046 18.3953C27.1046 12.044 21.9559 6.89532 15.6046 6.89532C15.6046 6.89532 16.5 6 16.5 6ZM16.5 8C20.9183 8 24.5 11.5817 24.5 16C24.5 20.4183 20.9183 24 16.5 24C12.0817 24 8.5 20.4183 8.5 16C8.5 11.5817 12.0817 8 16.5 8Z"/>
</svg>
