<svg width="120" height="120" viewBox="0 0 120 120" fill="none" xmlns="http://www.w3.org/2000/svg">
<g clip-path="url(#clip0_244_544)">
<mask id="path-1-inside-1_244_544" fill="white">
<path d="M119.079 111.312L104.029 96.2614C102.262 94.4935 100.078 93.3875 97.7912 92.9435V62.5855C98.2828 62.6267 98.7727 62.6468 99.2615 62.6468C103.908 62.6468 108.392 60.8231 111.765 57.4503C116.091 53.1244 117.868 46.973 116.519 40.9937C116.321 40.1111 115.631 39.4226 114.749 39.223C108.77 37.8754 102.618 39.6524 98.2929 43.9783C98.1208 44.1495 97.9551 44.3253 97.7912 44.502V32.2357C101.39 29.4827 103.503 25.2484 103.503 20.6635C103.503 15.6336 100.96 11.023 96.6999 8.3313C95.9345 7.8479 94.9604 7.8479 94.195 8.3313C89.9351 11.023 87.3917 15.6336 87.3917 20.6635C87.3917 25.2484 89.5048 29.4827 93.1037 32.2357V35.3119C89.2493 31.4951 83.791 29.9304 78.4855 31.127C77.6029 31.3266 76.9135 32.016 76.7148 32.8977C75.5127 38.2297 77.0975 43.7155 80.9546 47.5736C83.9631 50.582 87.9621 52.208 92.1058 52.208C92.4381 52.208 92.7704 52.1942 93.1037 52.1741V61.5876C92.7988 61.2351 92.4811 60.8909 92.1479 60.5576C87.4924 55.9031 80.8915 53.964 74.4535 55.3473C73.9325 51.7118 70.7996 48.9084 67.024 48.9084H51.9626L44.9451 39.2633C43.9527 37.8983 42.7167 36.7557 41.3242 35.8686C45.4138 34.1602 48.2959 30.12 48.2959 25.4187V19.8157H51.9095C53.2041 19.8157 54.2533 18.7665 54.2533 17.4719C54.2533 16.1774 53.2041 15.1282 51.9095 15.1282H48.9405V11.3736C48.9405 7.68677 45.9412 4.6875 42.2544 4.6875H31.1737C27.4869 4.6875 24.4876 7.68677 24.4876 11.3736V15.1282H21.5186C20.224 15.1282 19.1748 16.1774 19.1748 17.4719C19.1748 18.7665 20.224 19.8157 21.5186 19.8157H25.6568V25.4187C25.6568 29.068 27.3944 32.3181 30.0842 34.39C24.689 36.1103 20.7697 41.1685 20.7697 47.1268V72.6462C20.7697 78.1312 23.7662 82.9267 28.2065 85.4893V100.547H7.14844C3.07801 100.547 -0.234375 103.859 -0.234375 107.93C-0.234375 112 3.07801 115.313 7.14844 115.313H10.166C11.4606 115.313 12.5098 114.263 12.5098 112.969C12.5098 111.674 11.4606 110.625 10.166 110.625H7.14844C5.66254 110.625 4.45313 109.416 4.45313 107.93C4.45313 106.444 5.66254 105.234 7.14844 105.234H30.5503C31.8448 105.234 32.894 104.185 32.894 102.891V87.2178C33.7692 87.3798 34.6701 87.4686 35.5921 87.4686H40.2347V102.628C40.2347 107.038 36.6468 110.625 32.2376 110.625H28.916C27.6215 110.625 26.5723 111.674 26.5723 112.969C26.5723 114.263 27.6215 115.313 28.916 115.313H32.2376C39.2322 115.313 44.9222 109.623 44.9222 102.628V87.4686H53.4943V107.93C53.4943 112 56.8067 115.313 60.8771 115.313C64.9485 115.313 68.2599 112 68.2599 107.93V82.5001C68.2599 75.5054 62.5708 69.8154 55.5762 69.8154H44.2859V63.8114C44.5148 63.8846 44.7556 63.924 45.0019 63.924H67.024C68.9374 63.924 70.6852 63.2035 72.0127 62.0206C72.1546 66.8702 74.1239 71.5201 77.6542 75.0513C81.3218 78.7189 86.197 80.701 91.2479 80.701C91.865 80.701 92.4839 80.6699 93.1037 80.6104V92.9517C90.8295 93.4003 88.6606 94.5026 86.9028 96.2614L71.9221 111.242C71.0065 112.157 71.0065 113.641 71.9221 114.556C72.8367 115.472 74.3216 115.472 75.2363 114.556L90.217 99.5765C93.111 96.6816 97.8196 96.6816 100.714 99.5765L115.765 114.626C116.223 115.084 116.822 115.313 117.422 115.313C118.022 115.313 118.621 115.084 119.079 114.626C119.995 113.71 119.995 112.226 119.079 111.312ZM93.0662 47.4784C89.8179 47.7539 86.6154 46.604 84.2698 44.2594C81.9251 41.9138 80.7734 38.7122 81.0508 35.463C84.2991 35.1865 87.5016 36.3373 89.8472 38.682C92.1918 41.0276 93.3427 44.2301 93.0662 47.4784ZM101.607 47.2925C104.424 44.4763 108.293 43.1278 112.199 43.5443C112.615 47.4482 111.267 51.319 108.451 54.1352C105.634 56.9523 101.765 58.2999 97.859 57.8833C97.8168 57.486 97.7976 57.0896 97.7912 56.6941V56.2381C97.8562 52.9093 99.1874 49.7123 101.607 47.2925ZM95.4475 13.2275C97.5797 15.0925 98.8157 17.7768 98.8157 20.6644C98.8157 23.551 97.5797 26.2354 95.4475 28.1003C93.3152 26.2354 92.0792 23.552 92.0792 20.6644C92.0792 17.7768 93.3152 15.0925 95.4475 13.2275ZM43.6084 25.4187C43.6084 29.0753 40.633 32.0508 36.9763 32.0508C33.3188 32.0508 30.3443 29.0753 30.3443 25.4187V19.8157H43.6084V25.4187ZM29.1751 11.3736C29.1751 10.2713 30.0714 9.375 31.1737 9.375H42.2544C43.3567 9.375 44.253 10.2713 44.253 11.3736V15.1282H29.1751V11.3736ZM55.5762 74.5029C59.9854 74.5029 63.5724 78.0909 63.5724 82.5001V107.93C63.5724 109.416 62.3639 110.625 60.8771 110.625C59.3912 110.625 58.1818 109.416 58.1818 107.93V85.1249C58.1818 83.8312 57.1326 82.7811 55.8381 82.7811H35.5912C30.6381 82.7811 26.5055 79.2078 25.6302 74.5029H55.5762ZM67.024 59.2365H46.0529L41.5 54.1178C40.6394 53.1501 39.158 53.064 38.1903 53.9237C37.2235 54.7843 37.1366 56.2656 37.9972 57.2333L39.5984 59.0323V69.8154H25.4572V47.1268C25.4572 42.3413 29.3509 38.4476 34.1364 38.4476C36.9031 38.4476 39.527 39.7834 41.1548 42.0209L48.8745 52.631C49.3158 53.238 50.0199 53.5959 50.7697 53.5959H67.024C68.5795 53.5959 69.8447 54.8612 69.8447 56.4167C69.8447 57.9712 68.5785 59.2365 67.024 59.2365ZM93.0048 75.9083C88.5737 76.4365 84.1654 74.9332 80.9693 71.7371C77.7732 68.541 76.2681 64.1318 76.7972 59.7007C81.2275 59.1697 85.6376 60.6766 88.8337 63.8727C91.5812 66.6202 93.0744 70.2649 93.1037 74.0488V74.3802C93.0964 74.8884 93.0653 75.3983 93.0048 75.9083Z"/>
</mask>
<path d="M119.079 111.312L104.029 96.2614C102.262 94.4935 100.078 93.3875 97.7912 92.9435V62.5855C98.2828 62.6267 98.7727 62.6468 99.2615 62.6468C103.908 62.6468 108.392 60.8231 111.765 57.4503C116.091 53.1244 117.868 46.973 116.519 40.9937C116.321 40.1111 115.631 39.4226 114.749 39.223C108.77 37.8754 102.618 39.6524 98.2929 43.9783C98.1208 44.1495 97.9551 44.3253 97.7912 44.502V32.2357C101.39 29.4827 103.503 25.2484 103.503 20.6635C103.503 15.6336 100.96 11.023 96.6999 8.3313C95.9345 7.8479 94.9604 7.8479 94.195 8.3313C89.9351 11.023 87.3917 15.6336 87.3917 20.6635C87.3917 25.2484 89.5048 29.4827 93.1037 32.2357V35.3119C89.2493 31.4951 83.791 29.9304 78.4855 31.127C77.6029 31.3266 76.9135 32.016 76.7148 32.8977C75.5127 38.2297 77.0975 43.7155 80.9546 47.5736C83.9631 50.582 87.9621 52.208 92.1058 52.208C92.4381 52.208 92.7704 52.1942 93.1037 52.1741V61.5876C92.7988 61.2351 92.4811 60.8909 92.1479 60.5576C87.4924 55.9031 80.8915 53.964 74.4535 55.3473C73.9325 51.7118 70.7996 48.9084 67.024 48.9084H51.9626L44.9451 39.2633C43.9527 37.8983 42.7167 36.7557 41.3242 35.8686C45.4138 34.1602 48.2959 30.12 48.2959 25.4187V19.8157H51.9095C53.2041 19.8157 54.2533 18.7665 54.2533 17.4719C54.2533 16.1774 53.2041 15.1282 51.9095 15.1282H48.9405V11.3736C48.9405 7.68677 45.9412 4.6875 42.2544 4.6875H31.1737C27.4869 4.6875 24.4876 7.68677 24.4876 11.3736V15.1282H21.5186C20.224 15.1282 19.1748 16.1774 19.1748 17.4719C19.1748 18.7665 20.224 19.8157 21.5186 19.8157H25.6568V25.4187C25.6568 29.068 27.3944 32.3181 30.0842 34.39C24.689 36.1103 20.7697 41.1685 20.7697 47.1268V72.6462C20.7697 78.1312 23.7662 82.9267 28.2065 85.4893V100.547H7.14844C3.07801 100.547 -0.234375 103.859 -0.234375 107.93C-0.234375 112 3.07801 115.313 7.14844 115.313H10.166C11.4606 115.313 12.5098 114.263 12.5098 112.969C12.5098 111.674 11.4606 110.625 10.166 110.625H7.14844C5.66254 110.625 4.45313 109.416 4.45313 107.93C4.45313 106.444 5.66254 105.234 7.14844 105.234H30.5503C31.8448 105.234 32.894 104.185 32.894 102.891V87.2178C33.7692 87.3798 34.6701 87.4686 35.5921 87.4686H40.2347V102.628C40.2347 107.038 36.6468 110.625 32.2376 110.625H28.916C27.6215 110.625 26.5723 111.674 26.5723 112.969C26.5723 114.263 27.6215 115.313 28.916 115.313H32.2376C39.2322 115.313 44.9222 109.623 44.9222 102.628V87.4686H53.4943V107.93C53.4943 112 56.8067 115.313 60.8771 115.313C64.9485 115.313 68.2599 112 68.2599 107.93V82.5001C68.2599 75.5054 62.5708 69.8154 55.5762 69.8154H44.2859V63.8114C44.5148 63.8846 44.7556 63.924 45.0019 63.924H67.024C68.9374 63.924 70.6852 63.2035 72.0127 62.0206C72.1546 66.8702 74.1239 71.5201 77.6542 75.0513C81.3218 78.7189 86.197 80.701 91.2479 80.701C91.865 80.701 92.4839 80.6699 93.1037 80.6104V92.9517C90.8295 93.4003 88.6606 94.5026 86.9028 96.2614L71.9221 111.242C71.0065 112.157 71.0065 113.641 71.9221 114.556C72.8367 115.472 74.3216 115.472 75.2363 114.556L90.217 99.5765C93.111 96.6816 97.8196 96.6816 100.714 99.5765L115.765 114.626C116.223 115.084 116.822 115.313 117.422 115.313C118.022 115.313 118.621 115.084 119.079 114.626C119.995 113.71 119.995 112.226 119.079 111.312ZM93.0662 47.4784C89.8179 47.7539 86.6154 46.604 84.2698 44.2594C81.9251 41.9138 80.7734 38.7122 81.0508 35.463C84.2991 35.1865 87.5016 36.3373 89.8472 38.682C92.1918 41.0276 93.3427 44.2301 93.0662 47.4784ZM101.607 47.2925C104.424 44.4763 108.293 43.1278 112.199 43.5443C112.615 47.4482 111.267 51.319 108.451 54.1352C105.634 56.9523 101.765 58.2999 97.859 57.8833C97.8168 57.486 97.7976 57.0896 97.7912 56.6941V56.2381C97.8562 52.9093 99.1874 49.7123 101.607 47.2925ZM95.4475 13.2275C97.5797 15.0925 98.8157 17.7768 98.8157 20.6644C98.8157 23.551 97.5797 26.2354 95.4475 28.1003C93.3152 26.2354 92.0792 23.552 92.0792 20.6644C92.0792 17.7768 93.3152 15.0925 95.4475 13.2275ZM43.6084 25.4187C43.6084 29.0753 40.633 32.0508 36.9763 32.0508C33.3188 32.0508 30.3443 29.0753 30.3443 25.4187V19.8157H43.6084V25.4187ZM29.1751 11.3736C29.1751 10.2713 30.0714 9.375 31.1737 9.375H42.2544C43.3567 9.375 44.253 10.2713 44.253 11.3736V15.1282H29.1751V11.3736ZM55.5762 74.5029C59.9854 74.5029 63.5724 78.0909 63.5724 82.5001V107.93C63.5724 109.416 62.3639 110.625 60.8771 110.625C59.3912 110.625 58.1818 109.416 58.1818 107.93V85.1249C58.1818 83.8312 57.1326 82.7811 55.8381 82.7811H35.5912C30.6381 82.7811 26.5055 79.2078 25.6302 74.5029H55.5762ZM67.024 59.2365H46.0529L41.5 54.1178C40.6394 53.1501 39.158 53.064 38.1903 53.9237C37.2235 54.7843 37.1366 56.2656 37.9972 57.2333L39.5984 59.0323V69.8154H25.4572V47.1268C25.4572 42.3413 29.3509 38.4476 34.1364 38.4476C36.9031 38.4476 39.527 39.7834 41.1548 42.0209L48.8745 52.631C49.3158 53.238 50.0199 53.5959 50.7697 53.5959H67.024C68.5795 53.5959 69.8447 54.8612 69.8447 56.4167C69.8447 57.9712 68.5785 59.2365 67.024 59.2365ZM93.0048 75.9083C88.5737 76.4365 84.1654 74.9332 80.9693 71.7371C77.7732 68.541 76.2681 64.1318 76.7972 59.7007C81.2275 59.1697 85.6376 60.6766 88.8337 63.8727C91.5812 66.6202 93.0744 70.2649 93.1037 74.0488V74.3802C93.0964 74.8884 93.0653 75.3983 93.0048 75.9083Z" stroke="#54452E" stroke-width="2" mask="url(#path-1-inside-1_244_544)"/>
<path d="M17.6982 112.969C17.6982 112.485 17.895 112.007 18.2361 111.666C18.5821 111.322 19.0571 111.125 19.5402 111.125C20.0228 111.125 20.5005 111.323 20.8461 111.666C21.1879 112.008 21.3857 112.486 21.3857 112.969C21.3857 113.452 21.1879 113.93 20.8461 114.272C20.5005 114.615 20.0228 114.813 19.5402 114.813C19.0571 114.813 18.5821 114.615 18.2361 114.272C17.895 113.93 17.6982 113.453 17.6982 112.969Z" stroke="#54452E"/>
</g>
<defs>
<clipPath id="clip0_244_544">
<rect width="120" height="120" fill="white"/>
</clipPath>
</defs>
</svg>
