<svg width="120" height="120" viewBox="0 0 120 120" fill="none" xmlns="http://www.w3.org/2000/svg">
<path d="M54.876 64.9045L54.876 64.9045C55.5178 64.6387 55.8225 63.903 55.5567 63.2611C55.291 62.6195 54.5553 62.3148 53.9131 62.5805C51.8032 63.4542 49.4766 63.4542 47.3666 62.5804L47.3663 62.5802C46.7252 62.3141 45.9892 62.619 45.7233 63.2611L45.7232 63.2611C45.4573 63.9031 45.7621 64.6386 46.4037 64.9045H54.876ZM54.876 64.9045C53.5087 65.4708 52.0737 65.7535 50.64 65.7535C49.2061 65.7535 47.7711 65.4708 46.4038 64.9045L54.876 64.9045Z" stroke="#54452E"/>
<mask id="path-2-inside-1_244_780" fill="white">
<path d="M104.152 23.9091H102.947V13.1988C102.947 12.2967 102.541 11.4588 101.833 10.8999L93.5364 4.34673C92.4671 3.50181 90.9735 3.50204 89.9042 4.34649L81.6076 10.9003C80.8998 11.4595 80.4941 12.2972 80.4941 13.1991V23.9091H79.2887C78.2593 23.9091 77.3567 24.5304 76.9897 25.492C76.6224 26.4539 76.8812 27.5184 77.6488 28.2047L85.3339 35.0742V36.5395L66.5973 29.3529L57.8176 14.846L68.4821 4.20681C69.2975 3.39329 69.4421 2.1422 68.8337 1.16438C68.2253 0.186572 67.0393 -0.236475 65.949 0.135478L48.2809 6.16595C46.3607 6.82126 44.7552 8.24603 43.8763 10.0749L34.5924 29.3871L6.93386 39.9961C5.59417 40.5099 4.84089 41.854 5.10222 43.2647C5.36331 44.6759 6.54808 45.6612 7.98292 45.6612H26.1369C25.693 46.6423 25.4443 47.7298 25.4443 48.8747V50.0428C25.4443 51.3495 25.768 52.5816 26.3371 53.6653H15.2401C14.0509 53.6653 12.9885 54.3752 12.5335 55.474C12.0786 56.5727 12.328 57.8257 13.1687 58.6667L28.0419 73.5398L13.2013 80.4762C8.4444 82.6995 5.37058 87.5292 5.37058 92.7802V100.873C5.37058 102.488 6.68472 103.802 8.30026 103.802H9.73956V115.898C9.73956 118.16 11.5796 120 13.8411 120H93.2563C97.2556 120 100.509 116.746 100.509 112.747V101.756C100.509 98.8854 98.833 96.3994 96.4079 95.2245V68.4375C96.4079 67.4665 95.6209 66.6797 94.6501 66.6797C93.6793 66.6797 92.8923 67.4665 92.8923 68.4375V94.5031H90.5485V46.2483H92.8923V60.2344C92.8923 61.2054 93.6793 61.9922 94.6501 61.9922C95.6209 61.9922 96.4079 61.2054 96.4079 60.2344V45.9736C97.4094 45.5074 98.1071 44.4942 98.1071 43.3186V35.074L105.792 28.2045C106.56 27.5182 106.818 26.4534 106.451 25.4918C106.084 24.5304 105.181 23.9091 104.152 23.9091ZM67.085 3.4622C67.0843 3.46243 67.0834 3.4629 67.0827 3.46313L67.085 3.4622ZM93.478 8.78063L97.8981 12.2721L95.5112 13.4285L93.4782 11.8228V8.78063H93.478ZM99.4309 15.4362V23.9091H97.0438V16.5926L99.4309 15.4362ZM93.5281 16.3425V23.8788L93.4899 23.9091H89.9506L89.9124 23.8788V16.3425L91.7202 14.9145L93.5281 16.3425ZM89.9624 8.78063V11.8226L87.9294 13.4283L85.5423 12.2721L89.9624 8.78063ZM84.0095 15.4362L86.3968 16.5926V23.9091H84.0095V15.4362ZM86.5107 45.6609C86.6727 45.7821 86.8473 45.8874 87.0327 45.9736V53.8395C86.7198 53.7272 86.3851 53.6653 86.0389 53.6653H74.942C75.511 52.5813 75.8347 51.3495 75.8347 50.0428V48.8747C75.8347 47.7298 75.586 46.6423 75.1421 45.6612L86.5107 45.6609ZM68.0129 57.8646C69.1496 57.8646 70.2294 57.619 71.2049 57.1809H84.6242L67.9471 73.8581V61.0566V57.8646H68.0129ZM67.9473 54.349V45.6609H70.8695C71.7563 46.4503 72.3191 47.5967 72.3191 48.8745V50.0426C72.3191 52.417 70.3874 54.3488 68.0129 54.3488H67.9473V54.349ZM87.0327 59.7443V79.9873L73.2374 73.5396L87.0327 59.7443ZM40.3592 25.5052H47.5785C48.5492 25.5052 49.3363 24.7184 49.3363 23.7474C49.3363 22.7763 48.5492 21.9895 47.5785 21.9895H42.0493L47.045 11.5976C47.5182 10.613 48.3828 9.84563 49.4167 9.4929L62.7763 4.93313L54.358 13.3313C53.7847 13.9031 53.6762 14.7928 54.0955 15.4856L58.0316 21.9895H55.7814C54.8106 21.9895 54.0235 22.7763 54.0235 23.7474C54.0235 24.7184 54.8106 25.5052 55.7814 25.5052H60.1592L62.2867 29.0203H38.6694L40.3592 25.5052ZM11.1467 42.1453L36.1996 32.5359H65.0797L85.3337 40.3045V42.1453H11.1467ZM42.8359 50.1457C43.8067 50.1457 44.5937 49.3589 44.5937 48.3879V45.6609H49.3309C49.1549 45.7561 48.9913 45.8815 48.8509 46.0399L45.1855 50.1783C44.867 50.5378 44.7095 51.0122 44.7498 51.4908C44.7899 51.9694 45.024 52.4107 45.3981 52.7121L48.6531 55.3369H46.5383C42.3383 55.3369 38.9211 58.7538 38.9211 62.9541V66.0314C37.6067 64.7255 36.8478 62.9374 36.8478 61.0563V56.1066V45.6609H41.0783V48.3879C41.0781 49.3589 41.8651 50.1457 42.8359 50.1457ZM37.8308 69.6856C38.7266 70.3123 39.8863 70.3873 40.8573 69.8815C41.8314 69.3743 42.4365 68.3775 42.4365 67.2804V62.9541C42.4365 60.6926 44.2766 58.8525 46.5381 58.8525H54.7412C57.0027 58.8525 58.8428 60.6926 58.8428 62.9541V67.2804C58.8428 68.3775 59.4479 69.3743 60.422 69.8815C60.8495 70.1041 61.3135 70.2143 61.7755 70.2143C62.3628 70.2143 62.9471 70.0364 63.4482 69.6858C63.7937 69.4441 64.1214 69.1833 64.4317 68.9058V81.128C64.4317 83.0297 63.8912 84.8822 62.8684 86.4851L50.6396 105.654L38.4109 86.4849C37.3881 84.882 36.8476 83.0297 36.8476 81.128V68.9058C37.1577 69.1833 37.4853 69.4442 37.8308 69.6856ZM62.3584 66.0314V62.9541C62.3584 58.7538 58.9412 55.3369 54.7412 55.3369H51.5832C52.1352 54.5838 52.0044 53.5233 51.2703 52.9313L49.0382 51.131L51.4829 48.3708C52.1267 47.644 52.0592 46.5331 51.3324 45.8895C51.2298 45.7985 51.1192 45.7235 51.0036 45.6607H56.6858V48.3877C56.6858 49.3587 57.4728 50.1455 58.4436 50.1455C59.4144 50.1455 60.2014 49.3587 60.2014 48.3877V45.6609H64.4319V56.1066V61.0563C64.4317 62.9374 63.6728 64.7255 62.3584 66.0314ZM33.332 45.6609V54.3488H33.2661C30.8917 54.3488 28.9597 52.417 28.9597 50.0426V48.8745C28.9597 47.5967 29.5224 46.4503 30.4093 45.6609H33.332ZM16.6548 57.1809H30.0742C31.0496 57.619 32.1294 57.8646 33.2661 57.8646H33.332V61.0566V73.8581L16.6548 57.1809ZM37.1631 116.484H13.8409C13.5179 116.484 13.255 116.222 13.255 115.898V103.802H21.6409C22.6117 103.802 23.3987 103.016 23.3987 102.045C23.3987 101.074 22.6117 100.287 21.6409 100.287H8.8862V92.7802C8.8862 88.8884 11.1643 85.3088 14.69 83.6611L30.6866 76.1845L33.332 78.8299V81.1282C33.332 83.7014 34.0635 86.2076 35.447 88.376L41.5065 97.8748C39.71 99.4184 37.4085 100.287 35.0157 100.287H29.8438C28.873 100.287 28.086 101.074 28.086 102.045C28.086 103.016 28.873 103.802 29.8438 103.802H35.0157C35.7397 103.802 36.4571 103.741 37.1628 103.627L37.1631 116.484ZM60.6006 116.484H40.6787V102.546C41.6492 102.095 42.5664 101.529 43.4092 100.857L48.5649 108.939C49.0192 109.651 49.7949 110.077 50.6399 110.077C51.4846 110.077 52.2603 109.651 52.7146 108.939L57.8703 100.857C58.7134 101.529 59.6303 102.095 60.6008 102.545V116.484H60.6006ZM83.8274 112.693C83.2248 113.504 82.8941 114.517 82.9346 115.598C82.9459 115.901 82.9888 116.198 83.0598 116.484H64.1162V103.627C64.8217 103.741 65.5393 103.802 66.2633 103.802H82.9895C82.9515 104.039 82.9311 104.281 82.9311 104.528C82.9311 105.536 83.2618 106.484 83.8321 107.252C83.2618 108.02 82.9311 108.967 82.9311 109.976C82.9311 110.981 83.2599 111.926 83.8274 112.693ZM82.9346 98.9051C82.9168 99.3832 82.9754 99.8466 83.0942 100.287H66.2635C63.8708 100.287 61.5692 99.4184 59.7728 97.8748L65.8323 88.3763C67.216 86.2076 67.9473 83.7014 67.9473 81.1282V78.8299L70.5927 76.1845L86.5892 83.6609C86.7402 83.7314 86.8864 83.809 87.0327 83.8866V94.5436C84.8066 94.8216 83.0183 96.6694 82.9346 98.9051ZM93.2563 98.0187C95.3171 98.0187 96.9939 99.6952 96.9939 101.756V112.747C96.9939 114.808 95.3171 116.484 93.2563 116.484H87.6125C87.002 116.484 86.4685 116.018 86.4477 115.466C86.4289 114.965 86.7545 114.527 87.2394 114.401C88.0138 114.199 88.5542 113.5 88.5542 112.7C88.5542 111.899 88.0135 111.2 87.2392 110.999C86.7725 110.877 86.4467 110.456 86.4467 109.976C86.4467 109.495 86.7728 109.074 87.2392 108.953C88.0138 108.751 88.5542 108.052 88.5542 107.251C88.5542 106.451 88.0138 105.752 87.2392 105.55C86.7725 105.429 86.4467 105.008 86.4467 104.527C86.4467 104.046 86.7728 103.625 87.2394 103.504C88.0138 103.302 88.5542 102.603 88.5542 101.803C88.5542 101.003 88.0138 100.304 87.2394 100.102C86.7545 99.9755 86.4289 99.5374 86.4477 99.0363C86.4683 98.4846 87.0017 98.0184 87.6125 98.0184H93.2563V98.0187ZM94.5913 42.7327H88.8493V36.0455H94.5913V42.7327ZM95.6781 32.5299H87.7628L82.0513 27.4247H101.39L95.6781 32.5299Z"/>
</mask>
<path d="M104.152 23.9091H102.947V13.1988C102.947 12.2967 102.541 11.4588 101.833 10.8999L93.5364 4.34673C92.4671 3.50181 90.9735 3.50204 89.9042 4.34649L81.6076 10.9003C80.8998 11.4595 80.4941 12.2972 80.4941 13.1991V23.9091H79.2887C78.2593 23.9091 77.3567 24.5304 76.9897 25.492C76.6224 26.4539 76.8812 27.5184 77.6488 28.2047L85.3339 35.0742V36.5395L66.5973 29.3529L57.8176 14.846L68.4821 4.20681C69.2975 3.39329 69.4421 2.1422 68.8337 1.16438C68.2253 0.186572 67.0393 -0.236475 65.949 0.135478L48.2809 6.16595C46.3607 6.82126 44.7552 8.24603 43.8763 10.0749L34.5924 29.3871L6.93386 39.9961C5.59417 40.5099 4.84089 41.854 5.10222 43.2647C5.36331 44.6759 6.54808 45.6612 7.98292 45.6612H26.1369C25.693 46.6423 25.4443 47.7298 25.4443 48.8747V50.0428C25.4443 51.3495 25.768 52.5816 26.3371 53.6653H15.2401C14.0509 53.6653 12.9885 54.3752 12.5335 55.474C12.0786 56.5727 12.328 57.8257 13.1687 58.6667L28.0419 73.5398L13.2013 80.4762C8.4444 82.6995 5.37058 87.5292 5.37058 92.7802V100.873C5.37058 102.488 6.68472 103.802 8.30026 103.802H9.73956V115.898C9.73956 118.16 11.5796 120 13.8411 120H93.2563C97.2556 120 100.509 116.746 100.509 112.747V101.756C100.509 98.8854 98.833 96.3994 96.4079 95.2245V68.4375C96.4079 67.4665 95.6209 66.6797 94.6501 66.6797C93.6793 66.6797 92.8923 67.4665 92.8923 68.4375V94.5031H90.5485V46.2483H92.8923V60.2344C92.8923 61.2054 93.6793 61.9922 94.6501 61.9922C95.6209 61.9922 96.4079 61.2054 96.4079 60.2344V45.9736C97.4094 45.5074 98.1071 44.4942 98.1071 43.3186V35.074L105.792 28.2045C106.56 27.5182 106.818 26.4534 106.451 25.4918C106.084 24.5304 105.181 23.9091 104.152 23.9091ZM67.085 3.4622C67.0843 3.46243 67.0834 3.4629 67.0827 3.46313L67.085 3.4622ZM93.478 8.78063L97.8981 12.2721L95.5112 13.4285L93.4782 11.8228V8.78063H93.478ZM99.4309 15.4362V23.9091H97.0438V16.5926L99.4309 15.4362ZM93.5281 16.3425V23.8788L93.4899 23.9091H89.9506L89.9124 23.8788V16.3425L91.7202 14.9145L93.5281 16.3425ZM89.9624 8.78063V11.8226L87.9294 13.4283L85.5423 12.2721L89.9624 8.78063ZM84.0095 15.4362L86.3968 16.5926V23.9091H84.0095V15.4362ZM86.5107 45.6609C86.6727 45.7821 86.8473 45.8874 87.0327 45.9736V53.8395C86.7198 53.7272 86.3851 53.6653 86.0389 53.6653H74.942C75.511 52.5813 75.8347 51.3495 75.8347 50.0428V48.8747C75.8347 47.7298 75.586 46.6423 75.1421 45.6612L86.5107 45.6609ZM68.0129 57.8646C69.1496 57.8646 70.2294 57.619 71.2049 57.1809H84.6242L67.9471 73.8581V61.0566V57.8646H68.0129ZM67.9473 54.349V45.6609H70.8695C71.7563 46.4503 72.3191 47.5967 72.3191 48.8745V50.0426C72.3191 52.417 70.3874 54.3488 68.0129 54.3488H67.9473V54.349ZM87.0327 59.7443V79.9873L73.2374 73.5396L87.0327 59.7443ZM40.3592 25.5052H47.5785C48.5492 25.5052 49.3363 24.7184 49.3363 23.7474C49.3363 22.7763 48.5492 21.9895 47.5785 21.9895H42.0493L47.045 11.5976C47.5182 10.613 48.3828 9.84563 49.4167 9.4929L62.7763 4.93313L54.358 13.3313C53.7847 13.9031 53.6762 14.7928 54.0955 15.4856L58.0316 21.9895H55.7814C54.8106 21.9895 54.0235 22.7763 54.0235 23.7474C54.0235 24.7184 54.8106 25.5052 55.7814 25.5052H60.1592L62.2867 29.0203H38.6694L40.3592 25.5052ZM11.1467 42.1453L36.1996 32.5359H65.0797L85.3337 40.3045V42.1453H11.1467ZM42.8359 50.1457C43.8067 50.1457 44.5937 49.3589 44.5937 48.3879V45.6609H49.3309C49.1549 45.7561 48.9913 45.8815 48.8509 46.0399L45.1855 50.1783C44.867 50.5378 44.7095 51.0122 44.7498 51.4908C44.7899 51.9694 45.024 52.4107 45.3981 52.7121L48.6531 55.3369H46.5383C42.3383 55.3369 38.9211 58.7538 38.9211 62.9541V66.0314C37.6067 64.7255 36.8478 62.9374 36.8478 61.0563V56.1066V45.6609H41.0783V48.3879C41.0781 49.3589 41.8651 50.1457 42.8359 50.1457ZM37.8308 69.6856C38.7266 70.3123 39.8863 70.3873 40.8573 69.8815C41.8314 69.3743 42.4365 68.3775 42.4365 67.2804V62.9541C42.4365 60.6926 44.2766 58.8525 46.5381 58.8525H54.7412C57.0027 58.8525 58.8428 60.6926 58.8428 62.9541V67.2804C58.8428 68.3775 59.4479 69.3743 60.422 69.8815C60.8495 70.1041 61.3135 70.2143 61.7755 70.2143C62.3628 70.2143 62.9471 70.0364 63.4482 69.6858C63.7937 69.4441 64.1214 69.1833 64.4317 68.9058V81.128C64.4317 83.0297 63.8912 84.8822 62.8684 86.4851L50.6396 105.654L38.4109 86.4849C37.3881 84.882 36.8476 83.0297 36.8476 81.128V68.9058C37.1577 69.1833 37.4853 69.4442 37.8308 69.6856ZM62.3584 66.0314V62.9541C62.3584 58.7538 58.9412 55.3369 54.7412 55.3369H51.5832C52.1352 54.5838 52.0044 53.5233 51.2703 52.9313L49.0382 51.131L51.4829 48.3708C52.1267 47.644 52.0592 46.5331 51.3324 45.8895C51.2298 45.7985 51.1192 45.7235 51.0036 45.6607H56.6858V48.3877C56.6858 49.3587 57.4728 50.1455 58.4436 50.1455C59.4144 50.1455 60.2014 49.3587 60.2014 48.3877V45.6609H64.4319V56.1066V61.0563C64.4317 62.9374 63.6728 64.7255 62.3584 66.0314ZM33.332 45.6609V54.3488H33.2661C30.8917 54.3488 28.9597 52.417 28.9597 50.0426V48.8745C28.9597 47.5967 29.5224 46.4503 30.4093 45.6609H33.332ZM16.6548 57.1809H30.0742C31.0496 57.619 32.1294 57.8646 33.2661 57.8646H33.332V61.0566V73.8581L16.6548 57.1809ZM37.1631 116.484H13.8409C13.5179 116.484 13.255 116.222 13.255 115.898V103.802H21.6409C22.6117 103.802 23.3987 103.016 23.3987 102.045C23.3987 101.074 22.6117 100.287 21.6409 100.287H8.8862V92.7802C8.8862 88.8884 11.1643 85.3088 14.69 83.6611L30.6866 76.1845L33.332 78.8299V81.1282C33.332 83.7014 34.0635 86.2076 35.447 88.376L41.5065 97.8748C39.71 99.4184 37.4085 100.287 35.0157 100.287H29.8438C28.873 100.287 28.086 101.074 28.086 102.045C28.086 103.016 28.873 103.802 29.8438 103.802H35.0157C35.7397 103.802 36.4571 103.741 37.1628 103.627L37.1631 116.484ZM60.6006 116.484H40.6787V102.546C41.6492 102.095 42.5664 101.529 43.4092 100.857L48.5649 108.939C49.0192 109.651 49.7949 110.077 50.6399 110.077C51.4846 110.077 52.2603 109.651 52.7146 108.939L57.8703 100.857C58.7134 101.529 59.6303 102.095 60.6008 102.545V116.484H60.6006ZM83.8274 112.693C83.2248 113.504 82.8941 114.517 82.9346 115.598C82.9459 115.901 82.9888 116.198 83.0598 116.484H64.1162V103.627C64.8217 103.741 65.5393 103.802 66.2633 103.802H82.9895C82.9515 104.039 82.9311 104.281 82.9311 104.528C82.9311 105.536 83.2618 106.484 83.8321 107.252C83.2618 108.02 82.9311 108.967 82.9311 109.976C82.9311 110.981 83.2599 111.926 83.8274 112.693ZM82.9346 98.9051C82.9168 99.3832 82.9754 99.8466 83.0942 100.287H66.2635C63.8708 100.287 61.5692 99.4184 59.7728 97.8748L65.8323 88.3763C67.216 86.2076 67.9473 83.7014 67.9473 81.1282V78.8299L70.5927 76.1845L86.5892 83.6609C86.7402 83.7314 86.8864 83.809 87.0327 83.8866V94.5436C84.8066 94.8216 83.0183 96.6694 82.9346 98.9051ZM93.2563 98.0187C95.3171 98.0187 96.9939 99.6952 96.9939 101.756V112.747C96.9939 114.808 95.3171 116.484 93.2563 116.484H87.6125C87.002 116.484 86.4685 116.018 86.4477 115.466C86.4289 114.965 86.7545 114.527 87.2394 114.401C88.0138 114.199 88.5542 113.5 88.5542 112.7C88.5542 111.899 88.0135 111.2 87.2392 110.999C86.7725 110.877 86.4467 110.456 86.4467 109.976C86.4467 109.495 86.7728 109.074 87.2392 108.953C88.0138 108.751 88.5542 108.052 88.5542 107.251C88.5542 106.451 88.0138 105.752 87.2392 105.55C86.7725 105.429 86.4467 105.008 86.4467 104.527C86.4467 104.046 86.7728 103.625 87.2394 103.504C88.0138 103.302 88.5542 102.603 88.5542 101.803C88.5542 101.003 88.0138 100.304 87.2394 100.102C86.7545 99.9755 86.4289 99.5374 86.4477 99.0363C86.4683 98.4846 87.0017 98.0184 87.6125 98.0184H93.2563V98.0187ZM94.5913 42.7327H88.8493V36.0455H94.5913V42.7327ZM95.6781 32.5299H87.7628L82.0513 27.4247H101.39L95.6781 32.5299Z" stroke="#54452E" stroke-width="2" mask="url(#path-2-inside-1_244_780)"/>
<path d="M109.761 3.16406C109.761 3.85889 109.198 4.42188 108.503 4.42188C107.808 4.42188 107.245 3.85889 107.245 3.16406V1.75781C107.245 1.06298 107.808 0.5 108.503 0.5C109.198 0.5 109.761 1.06298 109.761 1.75781V3.16406Z" stroke="#54452E"/>
<path d="M107.245 9.72656C107.245 9.03173 107.808 8.46875 108.503 8.46875C109.198 8.46875 109.761 9.03173 109.761 9.72656V11.1328C109.761 11.8276 109.198 12.3906 108.503 12.3906C107.808 12.3906 107.245 11.8276 107.245 11.1328V9.72656Z" stroke="#54452E"/>
<path d="M105.222 7.70312H103.815C103.121 7.70312 102.558 7.14014 102.558 6.44531C102.558 5.75048 103.121 5.1875 103.815 5.1875H105.222C105.916 5.1875 106.479 5.75048 106.479 6.44531C106.479 7.14014 105.916 7.70312 105.222 7.70312Z" stroke="#54452E"/>
<path d="M111.784 5.1875H113.19C113.885 5.1875 114.448 5.75048 114.448 6.44531C114.448 7.14014 113.885 7.70312 113.19 7.70312H111.784C111.089 7.70312 110.526 7.14014 110.526 6.44531C110.526 5.75048 111.089 5.1875 111.784 5.1875Z" stroke="#54452E"/>
<path d="M72.8721 14.1753C72.8721 14.8701 72.3089 15.4331 71.6143 15.4331C70.9196 15.4331 70.3564 14.8701 70.3564 14.1753V12.769C70.3564 12.0742 70.9196 11.5112 71.6143 11.5112C72.3089 11.5112 72.8721 12.0742 72.8721 12.769V14.1753Z" stroke="#54452E"/>
<path d="M70.3564 20.7378C70.3564 20.043 70.9196 19.48 71.6143 19.48C72.3089 19.48 72.8721 20.0432 72.8721 20.7378V22.144C72.8721 22.8389 72.3089 23.4019 71.6143 23.4019C70.9196 23.4019 70.3564 22.8389 70.3564 22.144V20.7378Z" stroke="#54452E"/>
<path d="M65.6689 17.4565C65.6689 16.7617 66.2321 16.1987 66.9268 16.1987H68.333C69.0277 16.1987 69.5908 16.7617 69.5908 17.4565C69.5908 18.1514 69.0277 18.7144 68.333 18.7144H66.9268C66.2321 18.7144 65.6689 18.1514 65.6689 17.4565Z" stroke="#54452E"/>
<path d="M76.3018 18.7144H74.8955C74.2008 18.7144 73.6377 18.1514 73.6377 17.4565C73.6377 16.7617 74.2008 16.1987 74.8955 16.1987H76.3018C76.9964 16.1987 77.5596 16.7617 77.5596 17.4565C77.5596 18.1514 76.9964 18.7144 76.3018 18.7144Z" stroke="#54452E"/>
</svg>
