<svg width="120" height="120" viewBox="0 0 120 120" fill="none" xmlns="http://www.w3.org/2000/svg">
<g clip-path="url(#clip0_244_654)">
<path d="M65.0696 52.6809L65.0699 52.6811C65.9535 53.1873 66.259 54.3136 65.7525 55.1975L65.7525 55.1975L65.75 55.202L65.7212 55.2536C65.3806 55.8457 64.7606 56.1784 64.12 56.1784C63.8094 56.1784 63.4956 56.1002 63.2055 55.9336L63.2051 55.9333C62.3231 55.4276 62.0171 54.3025 62.5212 53.4187L62.551 53.368L62.551 53.368L62.5535 53.3637C63.0599 52.4798 64.1861 52.174 65.0696 52.6809Z" stroke="#54452E"/>
<mask id="path-2-inside-1_244_654" fill="white">
<path d="M111.094 22.5C113.472 22.5 115.709 21.5735 117.392 19.8917C119.073 18.2098 120 15.9732 120 13.5938C120 11.2152 119.073 8.97858 117.392 7.29584C115.709 5.61401 113.472 4.6875 111.094 4.6875C108.714 4.6875 106.479 5.61401 104.796 7.29584C103.114 8.97858 102.188 11.2152 102.188 13.5938C102.188 15.1694 102.596 16.6818 103.359 18.013L97.3224 24.0509C92.9013 21.8564 87.9446 20.625 82.7115 20.625C74.1833 20.625 66.2073 23.8184 60 29.6695C53.7936 23.8184 45.8167 20.625 37.2885 20.625C32.0563 20.625 27.0987 21.8564 22.6785 24.0509L16.6406 18.013C17.4042 16.6818 17.8125 15.1694 17.8125 13.5938C17.8125 11.2152 16.886 8.97858 15.2042 7.29584C13.5214 5.61401 11.2857 4.6875 8.90625 4.6875C6.52771 4.6875 4.29108 5.61401 2.60834 7.29584C0.926514 8.97858 0 11.2152 0 13.5938C0 15.9732 0.926514 18.2098 2.60834 19.8917C4.29108 21.5744 6.52771 22.5 8.90625 22.5C10.4819 22.5 11.9943 22.0917 13.3255 21.3281L18.5092 26.5109C15.1602 28.83 12.2388 31.7514 9.89594 35.1205C9.78241 35.2524 9.68536 35.397 9.60388 35.5508C5.87036 41.0944 3.68042 47.8079 3.68042 55.036C3.68042 63.2227 8.94836 73.3502 19.3378 85.1367C21.9479 88.0994 24.743 91.0062 27.5812 93.7912L16.6672 104.706C15.7516 105.621 15.7516 107.105 16.6672 108.02C17.1249 108.478 17.7246 108.707 18.3243 108.707C18.924 108.707 19.5236 108.478 19.9814 108.02L30.9641 97.0377C35.0391 100.865 39.0875 104.384 42.7002 107.392C42.7112 107.402 42.7231 107.411 42.7341 107.421C44.0991 108.557 45.4019 109.622 46.6196 110.6C50.397 113.64 55.1495 115.313 60 115.313C64.8505 115.313 69.603 113.64 73.3804 110.6C77.8262 107.024 83.4064 102.324 89.0359 97.0377L106.625 114.627C107.083 115.085 107.682 115.313 108.282 115.313C108.882 115.313 109.482 115.085 109.939 114.627C110.855 113.712 110.855 112.228 109.939 111.313L92.4188 93.7912C95.257 91.0062 98.0521 88.0994 100.662 85.1367C111.052 73.3502 116.32 63.2227 116.32 55.036C116.32 43.1781 110.431 32.7017 101.491 26.5109L106.674 21.3272C108.006 22.0917 109.518 22.5 111.094 22.5ZM5.92346 16.5775C4.27826 14.9323 4.27826 12.2562 5.92346 10.611C6.71997 9.81354 7.77924 9.375 8.90625 9.375C10.0333 9.375 11.0925 9.81354 11.89 10.611C13.5342 12.2552 13.5342 14.9323 11.89 16.5765L11.889 16.5775C11.0925 17.374 10.0333 17.8125 8.90625 17.8125C7.77924 17.8125 6.71997 17.374 5.92346 16.5775ZM108.111 10.611C108.907 9.81354 109.967 9.375 111.094 9.375C112.221 9.375 113.28 9.81354 114.077 10.611C115.722 12.2552 115.722 14.9323 114.077 16.5775C113.28 17.374 112.221 17.8125 111.094 17.8125C109.968 17.8125 108.908 17.374 108.112 16.5775C108.111 16.5775 108.111 16.5775 108.111 16.5775C106.466 14.9323 106.466 12.2562 108.111 10.611ZM57.3083 33.588C55.8508 35.2798 54.4748 37.0276 53.1802 38.8257C48.4698 35.7816 44.8105 31.2918 42.7936 26.0239C42.7689 25.9607 42.7478 25.8957 42.724 25.8325C48.1952 26.8909 53.2224 29.5486 57.3083 33.588ZM45.5301 52.0569C37.8021 47.2604 31.8045 40.0168 28.537 31.4822C28.0005 30.0806 27.5381 28.645 27.1536 27.1985C30.3094 25.9808 33.7244 25.3125 37.2885 25.3125C37.3975 25.3125 37.5055 25.3162 37.6144 25.3171C37.8506 26.1209 38.1161 26.9183 38.4155 27.7002C40.7776 33.8681 45.0504 39.136 50.5563 42.7176C48.6621 45.7205 46.9849 48.8425 45.5301 52.0569ZM22.8662 29.2795C23.2416 30.5887 23.6728 31.886 24.1599 33.1586C27.8842 42.886 34.7992 51.1038 43.7064 56.4322C42.4191 59.8151 41.3708 63.284 40.5698 66.8115C28.515 60.3461 19.2462 49.8532 14.3097 37.0111C16.6324 33.891 19.5401 31.2543 22.8662 29.2795ZM11.3113 41.9824C17.1048 54.8209 27.0282 65.2222 39.6396 71.6135C39.0417 75.3159 38.7103 79.0677 38.6581 82.8387C26.6565 77.6074 16.3715 69.3054 8.76984 58.6807C8.50433 57.41 8.36884 56.1942 8.36884 55.036C8.36792 50.3558 9.4281 45.9256 11.3113 41.9824ZM22.8543 82.0377C20.4886 79.3542 18.4113 76.7807 16.6214 74.3216C23.1253 80.0519 30.5896 84.6661 38.7589 87.9639C38.9548 91.6672 39.4199 95.3741 40.1633 99.0573C37.8195 96.9992 35.3934 94.7937 32.9745 92.4884C32.8802 92.3337 32.7686 92.1872 32.6349 92.0535C32.4765 91.8951 32.2998 91.7661 32.113 91.6617C28.9243 88.5864 25.7684 85.3445 22.8543 82.0377ZM75.9375 70.9186C79.3945 60.2975 86.781 51.6586 96.7355 46.593C100.61 44.6219 104.722 43.2742 108.966 42.5803C110.399 45.7571 111.301 49.2343 111.556 52.8928C108.071 53.3578 104.707 54.4052 101.533 56.0202C87.8485 62.9837 81.2613 78.9734 85.9763 93.4827C83.1161 96.1725 80.2643 98.7112 77.5681 101.026C73.2761 91.5189 72.6865 80.9042 75.9375 70.9186ZM107.401 68.1445C102.001 72.8531 95.993 76.6937 89.501 79.5987C90.8386 71.488 95.9106 64.1409 103.659 60.1987C106.127 58.9426 108.729 58.0902 111.42 57.6517C110.93 60.7965 109.587 64.3002 107.401 68.1445ZM89.8105 89.7803C89.4351 88.1406 89.2218 86.489 89.1641 84.8447C92.5214 83.4695 95.7614 81.8619 98.8751 80.0354C98.3167 80.6955 97.7408 81.3629 97.1457 82.0377C94.8193 84.6771 92.3392 87.2754 89.8105 89.7803ZM106.568 38.2544C102.428 39.0857 98.4155 40.4791 94.6097 42.4155C83.5391 48.0487 75.325 57.6553 71.4798 69.4675C67.7271 80.9967 68.5785 93.2794 73.8602 104.155C72.6645 105.147 71.5192 106.082 70.4425 106.948C68.7634 108.299 66.8738 109.273 64.8907 109.874C64.8697 109.832 64.8468 109.79 64.8257 109.748C57.5565 95.462 56.64 78.6639 62.3117 63.6612C62.7695 62.45 62.1597 61.0977 60.9485 60.64C59.7382 60.1822 58.385 60.7928 57.9272 62.0032C54.9161 69.9673 53.5904 78.3014 53.985 86.7728C54.3713 95.072 56.4029 103.08 60.0201 110.598C56.3049 110.603 52.5879 109.386 49.5575 106.948C48.5239 106.117 47.4252 105.222 46.2817 104.274C38.3514 77.4188 46.7496 48.1879 67.7911 29.6283C67.8598 29.567 67.923 29.5029 67.9825 29.437C72.3853 26.7462 77.4261 25.3134 82.7115 25.3134C85.9277 25.3134 89.024 25.8563 91.9162 26.857C90.4843 27.4557 89.0707 28.1067 87.6874 28.8107C79.8514 32.7979 73.1021 38.2626 67.6254 45.054C66.8124 46.0611 66.9708 47.5369 67.9788 48.3499C68.4119 48.6987 68.9319 48.869 69.4482 48.869C70.1331 48.869 70.8115 48.5706 71.2747 47.9965C76.333 41.7233 82.5705 36.6733 89.8132 32.9883C92.3785 31.6827 95.0482 30.5676 97.7628 29.6649C101.254 31.8604 104.257 34.7946 106.568 38.2544Z"/>
</mask>
<path d="M111.094 22.5C113.472 22.5 115.709 21.5735 117.392 19.8917C119.073 18.2098 120 15.9732 120 13.5938C120 11.2152 119.073 8.97858 117.392 7.29584C115.709 5.61401 113.472 4.6875 111.094 4.6875C108.714 4.6875 106.479 5.61401 104.796 7.29584C103.114 8.97858 102.188 11.2152 102.188 13.5938C102.188 15.1694 102.596 16.6818 103.359 18.013L97.3224 24.0509C92.9013 21.8564 87.9446 20.625 82.7115 20.625C74.1833 20.625 66.2073 23.8184 60 29.6695C53.7936 23.8184 45.8167 20.625 37.2885 20.625C32.0563 20.625 27.0987 21.8564 22.6785 24.0509L16.6406 18.013C17.4042 16.6818 17.8125 15.1694 17.8125 13.5938C17.8125 11.2152 16.886 8.97858 15.2042 7.29584C13.5214 5.61401 11.2857 4.6875 8.90625 4.6875C6.52771 4.6875 4.29108 5.61401 2.60834 7.29584C0.926514 8.97858 0 11.2152 0 13.5938C0 15.9732 0.926514 18.2098 2.60834 19.8917C4.29108 21.5744 6.52771 22.5 8.90625 22.5C10.4819 22.5 11.9943 22.0917 13.3255 21.3281L18.5092 26.5109C15.1602 28.83 12.2388 31.7514 9.89594 35.1205C9.78241 35.2524 9.68536 35.397 9.60388 35.5508C5.87036 41.0944 3.68042 47.8079 3.68042 55.036C3.68042 63.2227 8.94836 73.3502 19.3378 85.1367C21.9479 88.0994 24.743 91.0062 27.5812 93.7912L16.6672 104.706C15.7516 105.621 15.7516 107.105 16.6672 108.02C17.1249 108.478 17.7246 108.707 18.3243 108.707C18.924 108.707 19.5236 108.478 19.9814 108.02L30.9641 97.0377C35.0391 100.865 39.0875 104.384 42.7002 107.392C42.7112 107.402 42.7231 107.411 42.7341 107.421C44.0991 108.557 45.4019 109.622 46.6196 110.6C50.397 113.64 55.1495 115.313 60 115.313C64.8505 115.313 69.603 113.64 73.3804 110.6C77.8262 107.024 83.4064 102.324 89.0359 97.0377L106.625 114.627C107.083 115.085 107.682 115.313 108.282 115.313C108.882 115.313 109.482 115.085 109.939 114.627C110.855 113.712 110.855 112.228 109.939 111.313L92.4188 93.7912C95.257 91.0062 98.0521 88.0994 100.662 85.1367C111.052 73.3502 116.32 63.2227 116.32 55.036C116.32 43.1781 110.431 32.7017 101.491 26.5109L106.674 21.3272C108.006 22.0917 109.518 22.5 111.094 22.5ZM5.92346 16.5775C4.27826 14.9323 4.27826 12.2562 5.92346 10.611C6.71997 9.81354 7.77924 9.375 8.90625 9.375C10.0333 9.375 11.0925 9.81354 11.89 10.611C13.5342 12.2552 13.5342 14.9323 11.89 16.5765L11.889 16.5775C11.0925 17.374 10.0333 17.8125 8.90625 17.8125C7.77924 17.8125 6.71997 17.374 5.92346 16.5775ZM108.111 10.611C108.907 9.81354 109.967 9.375 111.094 9.375C112.221 9.375 113.28 9.81354 114.077 10.611C115.722 12.2552 115.722 14.9323 114.077 16.5775C113.28 17.374 112.221 17.8125 111.094 17.8125C109.968 17.8125 108.908 17.374 108.112 16.5775C108.111 16.5775 108.111 16.5775 108.111 16.5775C106.466 14.9323 106.466 12.2562 108.111 10.611ZM57.3083 33.588C55.8508 35.2798 54.4748 37.0276 53.1802 38.8257C48.4698 35.7816 44.8105 31.2918 42.7936 26.0239C42.7689 25.9607 42.7478 25.8957 42.724 25.8325C48.1952 26.8909 53.2224 29.5486 57.3083 33.588ZM45.5301 52.0569C37.8021 47.2604 31.8045 40.0168 28.537 31.4822C28.0005 30.0806 27.5381 28.645 27.1536 27.1985C30.3094 25.9808 33.7244 25.3125 37.2885 25.3125C37.3975 25.3125 37.5055 25.3162 37.6144 25.3171C37.8506 26.1209 38.1161 26.9183 38.4155 27.7002C40.7776 33.8681 45.0504 39.136 50.5563 42.7176C48.6621 45.7205 46.9849 48.8425 45.5301 52.0569ZM22.8662 29.2795C23.2416 30.5887 23.6728 31.886 24.1599 33.1586C27.8842 42.886 34.7992 51.1038 43.7064 56.4322C42.4191 59.8151 41.3708 63.284 40.5698 66.8115C28.515 60.3461 19.2462 49.8532 14.3097 37.0111C16.6324 33.891 19.5401 31.2543 22.8662 29.2795ZM11.3113 41.9824C17.1048 54.8209 27.0282 65.2222 39.6396 71.6135C39.0417 75.3159 38.7103 79.0677 38.6581 82.8387C26.6565 77.6074 16.3715 69.3054 8.76984 58.6807C8.50433 57.41 8.36884 56.1942 8.36884 55.036C8.36792 50.3558 9.4281 45.9256 11.3113 41.9824ZM22.8543 82.0377C20.4886 79.3542 18.4113 76.7807 16.6214 74.3216C23.1253 80.0519 30.5896 84.6661 38.7589 87.9639C38.9548 91.6672 39.4199 95.3741 40.1633 99.0573C37.8195 96.9992 35.3934 94.7937 32.9745 92.4884C32.8802 92.3337 32.7686 92.1872 32.6349 92.0535C32.4765 91.8951 32.2998 91.7661 32.113 91.6617C28.9243 88.5864 25.7684 85.3445 22.8543 82.0377ZM75.9375 70.9186C79.3945 60.2975 86.781 51.6586 96.7355 46.593C100.61 44.6219 104.722 43.2742 108.966 42.5803C110.399 45.7571 111.301 49.2343 111.556 52.8928C108.071 53.3578 104.707 54.4052 101.533 56.0202C87.8485 62.9837 81.2613 78.9734 85.9763 93.4827C83.1161 96.1725 80.2643 98.7112 77.5681 101.026C73.2761 91.5189 72.6865 80.9042 75.9375 70.9186ZM107.401 68.1445C102.001 72.8531 95.993 76.6937 89.501 79.5987C90.8386 71.488 95.9106 64.1409 103.659 60.1987C106.127 58.9426 108.729 58.0902 111.42 57.6517C110.93 60.7965 109.587 64.3002 107.401 68.1445ZM89.8105 89.7803C89.4351 88.1406 89.2218 86.489 89.1641 84.8447C92.5214 83.4695 95.7614 81.8619 98.8751 80.0354C98.3167 80.6955 97.7408 81.3629 97.1457 82.0377C94.8193 84.6771 92.3392 87.2754 89.8105 89.7803ZM106.568 38.2544C102.428 39.0857 98.4155 40.4791 94.6097 42.4155C83.5391 48.0487 75.325 57.6553 71.4798 69.4675C67.7271 80.9967 68.5785 93.2794 73.8602 104.155C72.6645 105.147 71.5192 106.082 70.4425 106.948C68.7634 108.299 66.8738 109.273 64.8907 109.874C64.8697 109.832 64.8468 109.79 64.8257 109.748C57.5565 95.462 56.64 78.6639 62.3117 63.6612C62.7695 62.45 62.1597 61.0977 60.9485 60.64C59.7382 60.1822 58.385 60.7928 57.9272 62.0032C54.9161 69.9673 53.5904 78.3014 53.985 86.7728C54.3713 95.072 56.4029 103.08 60.0201 110.598C56.3049 110.603 52.5879 109.386 49.5575 106.948C48.5239 106.117 47.4252 105.222 46.2817 104.274C38.3514 77.4188 46.7496 48.1879 67.7911 29.6283C67.8598 29.567 67.923 29.5029 67.9825 29.437C72.3853 26.7462 77.4261 25.3134 82.7115 25.3134C85.9277 25.3134 89.024 25.8563 91.9162 26.857C90.4843 27.4557 89.0707 28.1067 87.6874 28.8107C79.8514 32.7979 73.1021 38.2626 67.6254 45.054C66.8124 46.0611 66.9708 47.5369 67.9788 48.3499C68.4119 48.6987 68.9319 48.869 69.4482 48.869C70.1331 48.869 70.8115 48.5706 71.2747 47.9965C76.333 41.7233 82.5705 36.6733 89.8132 32.9883C92.3785 31.6827 95.0482 30.5676 97.7628 29.6649C101.254 31.8604 104.257 34.7946 106.568 38.2544Z" stroke="#54452E" stroke-width="2" mask="url(#path-2-inside-1_244_654)"/>
<path d="M10.4142 111.666C10.7576 111.324 11.2348 111.126 11.7178 111.126C12.2019 111.126 12.6789 111.324 13.0211 111.666C13.3637 112.009 13.5615 112.487 13.5615 112.97C13.5615 113.454 13.3635 113.931 13.0213 114.273C12.6791 114.615 12.202 114.813 11.7178 114.813C11.2347 114.813 10.7574 114.616 10.414 114.273C10.0719 113.931 9.87402 113.454 9.87402 112.97C9.87402 112.487 10.0718 112.01 10.4142 111.666Z" stroke="#54452E"/>
</g>
<defs>
<clipPath id="clip0_244_654">
<rect width="120" height="120" fill="white"/>
</clipPath>
</defs>
</svg>
