<svg width="120" height="120" viewBox="0 0 120 120" fill="none" xmlns="http://www.w3.org/2000/svg">
<mask id="path-1-inside-1_244_828" fill="white">
<path d="M84.7503 91.2881C87.1258 87.1796 90.579 83.7985 94.7366 81.51C91.8394 85.4787 89.9606 90.0977 89.2649 94.9618C88.5693 99.826 89.078 104.786 90.7466 109.408C90.8279 109.641 90.9543 109.855 91.1184 110.038C91.2826 110.222 91.4813 110.371 91.7032 110.478C91.9251 110.585 92.1658 110.647 92.4117 110.661C92.6576 110.675 92.9038 110.64 93.1362 110.558C93.3687 110.477 93.5828 110.351 93.7664 110.187C93.95 110.022 94.0995 109.824 94.2063 109.602C94.3131 109.38 94.3752 109.139 94.389 108.893C94.4027 108.647 94.3679 108.401 94.2866 108.169C92.3824 102.882 92.21 97.1268 93.7943 91.7358C95.3786 86.3447 98.6375 81.5977 103.099 78.1819C103.484 77.8741 103.749 77.4404 103.847 76.9569C103.944 76.4734 103.868 75.9711 103.632 75.5381C103.396 75.1051 103.015 74.769 102.555 74.589C102.096 74.409 101.588 74.3965 101.121 74.5538C92.5128 77.5144 84.9584 82.4287 80.9234 90.5869C80.1734 84 82.6503 79.6387 86.3853 74.805C86.7199 74.4695 86.9183 74.0219 86.9422 73.5487C86.9661 73.0755 86.8138 72.6102 86.5148 72.2426C86.2158 71.8751 85.7912 71.6314 85.323 71.5585C84.8548 71.4856 84.3763 71.5888 83.9797 71.8481C78.2277 75.3873 73.619 80.511 70.7066 86.6044C70.9317 80.8067 72.7388 75.1811 75.9322 70.3369C76.226 69.8924 76.3395 69.3528 76.2497 68.8277C76.1599 68.3026 75.8736 67.8313 75.4489 67.5097C75.0241 67.1881 74.4929 67.0403 73.9631 67.0963C73.4333 67.1523 72.9447 67.4079 72.5966 67.8112C70.727 69.9781 69.0235 72.2827 67.5003 74.7056V48.75H74.0628C75.306 48.75 76.4983 48.2561 77.3774 47.3771C78.2565 46.498 78.7503 45.3057 78.7503 44.0625V38.4375C78.7503 37.1943 78.2565 36.002 77.3774 35.1229C76.4983 34.2439 75.306 33.75 74.0628 33.75H67.5003V28.125H75.0003C75.9949 28.125 76.9487 27.7299 77.652 27.0266C78.3552 26.3234 78.7503 25.3696 78.7503 24.375V23.2031C78.7506 21.8796 78.49 20.5689 77.9837 19.3461C77.4773 18.1233 76.7349 17.0122 75.799 16.0763C74.8632 15.1404 73.7521 14.398 72.5292 13.8916C71.3064 13.3853 69.9957 13.1248 68.6722 13.125H51.3284C50.0049 13.1248 48.6943 13.3853 47.4714 13.8916C46.2486 14.398 45.1375 15.1404 44.2016 16.0763C43.2657 17.0122 42.5233 18.1233 42.017 19.3461C41.5106 20.5689 41.2501 21.8796 41.2503 23.2031V24.375C41.2503 25.3696 41.6454 26.3234 42.3487 27.0266C43.0519 27.7299 44.0057 28.125 45.0003 28.125H52.5003V33.75H45.9378C44.6946 33.75 43.5023 34.2439 42.6232 35.1229C41.7442 36.002 41.2503 37.1943 41.2503 38.4375V44.0625C41.2503 45.3057 41.7442 46.498 42.6232 47.3771C43.5023 48.2561 44.6946 48.75 45.9378 48.75H52.5003V72.8269C51.4934 71.5144 50.5072 70.365 49.5959 69.3844C49.2441 69.0077 48.7658 68.7739 48.2525 68.7276C47.7391 68.6812 47.2267 68.8256 46.8131 69.1332C46.3995 69.4408 46.1137 69.89 46.0104 70.395C45.907 70.8999 45.9933 71.4253 46.2528 71.8706C47.7248 74.3829 48.9373 77.0384 49.8716 79.7962C48.4233 78.0017 46.6757 76.471 44.7059 75.2719C44.3287 74.9872 43.8595 74.8522 43.3887 74.8927C42.9179 74.9332 42.4786 75.1465 42.1556 75.4914C41.8326 75.8363 41.6485 76.2885 41.6389 76.761C41.6293 77.2335 41.7947 77.6928 42.1034 78.0506C43.3917 79.7769 44.4623 81.6555 45.2909 83.6438C40.9934 77.3194 33.8966 72.3019 24.0172 68.7375C23.52 68.5612 22.9746 68.5784 22.4896 68.7859C22.0045 68.9933 21.6153 69.3757 21.3993 69.857C21.1834 70.3384 21.1565 70.8833 21.324 71.3836C21.4915 71.8838 21.8412 72.3027 22.3034 72.5569C26.9786 75.444 30.8317 79.4862 33.4917 84.2942C36.1516 89.1022 37.5289 94.5141 37.4909 100.009C35.0272 91.2188 27.2834 84.9337 19.1834 80.7337C18.7504 80.5106 18.2533 80.4453 17.7773 80.5489C17.3014 80.6525 16.8763 80.9186 16.5753 81.3015C16.2742 81.6844 16.1159 82.1603 16.1276 82.6472C16.1392 83.1342 16.32 83.6019 16.6391 83.97C23.0297 91.3365 26.4223 100.834 26.1453 110.582C26.1329 111.079 26.3185 111.561 26.6613 111.921C27.0042 112.282 27.4761 112.491 27.9734 112.504C28.4707 112.516 28.9526 112.331 29.313 111.988C29.6734 111.645 29.8829 111.173 29.8953 110.676C30.1 102.831 28.1548 95.0789 24.2703 88.26C34.8922 96.2381 34.2847 103.605 35.0947 108.435C35.1803 108.95 35.4357 109.421 35.8202 109.775C36.2046 110.128 36.6961 110.342 37.2165 110.384C37.7368 110.425 38.2561 110.292 38.6918 110.004C39.1275 109.717 39.4546 109.292 39.6209 108.797C41.2979 103.452 41.6023 97.7703 40.5062 92.2765C39.4102 86.7826 36.9488 81.6531 33.3491 77.3606C44.9891 84.8306 47.2503 93.9656 46.4459 106.875C46.2491 110.046 46.1066 112.335 48.3116 112.699C52.9616 113.449 57.3566 96.6131 54.9041 84.0675C58.6391 92.34 58.8059 98.0306 57.9359 106.549C57.7484 108.424 56.9984 112.924 60.0622 112.725C62.2747 112.695 62.3703 110.588 62.5428 106.766C62.4673 98.7555 64.0399 90.8148 67.1628 83.4375C65.4753 96.9881 72.8966 113.88 78.5741 112.688C83.5803 111.602 78.9828 101.674 84.7503 91.2881ZM45.0003 23.2031C45.0003 21.5248 45.667 19.9152 46.8538 18.7285C48.0405 17.5417 49.6501 16.875 51.3284 16.875H68.6572C70.3369 16.875 71.948 17.5412 73.1372 18.7276C74.3263 19.9139 74.9963 21.5234 75.0003 23.2031C75.0008 23.356 74.9711 23.5075 74.9129 23.6489C74.8546 23.7902 74.7691 23.9187 74.661 24.0269C74.553 24.1351 74.4247 24.2209 74.2834 24.2793C74.1421 24.3378 73.9907 24.3677 73.8378 24.3675H46.1628C45.8546 24.367 45.5592 24.2444 45.3413 24.0265C45.1234 23.8086 45.0008 23.5132 45.0003 23.205V23.2031ZM56.2503 28.125H63.7503V33.75H56.2503V28.125ZM45.0003 44.0625V38.4375C45.0003 38.1889 45.0991 37.9504 45.2749 37.7746C45.4507 37.5988 45.6892 37.5 45.9378 37.5H74.0628C74.3114 37.5 74.5499 37.5988 74.7257 37.7746C74.9015 37.9504 75.0003 38.1889 75.0003 38.4375V44.0625C75.0003 44.3111 74.9015 44.5496 74.7257 44.7254C74.5499 44.9012 74.3114 45 74.0628 45H45.9378C45.6892 45 45.4507 44.9012 45.2749 44.7254C45.0991 44.5496 45.0003 44.3111 45.0003 44.0625ZM50.3684 103.431C50.4272 101.239 50.3294 99.0459 50.0759 96.8681C50.7671 93.5501 50.7951 90.1282 50.1584 86.7994C50.7434 87.7369 51.3059 88.7681 51.8459 89.8631L51.8666 89.94C52.094 94.4881 51.5882 99.0432 50.3684 103.431ZM60.9584 90C59.8849 86.0017 58.3026 82.1578 56.2503 78.5625V48.75H63.7503V81.8138C62.5972 84.4615 61.6635 87.1994 60.9584 90ZM77.4041 108.666C74.3497 104.778 72.3063 100.195 71.4566 95.325C72.6357 90.5964 74.821 86.1777 77.8634 82.3706C76.5225 87.1864 76.8085 92.3102 78.6772 96.9469C77.9596 100.816 77.534 104.733 77.4041 108.666Z"/>
</mask>
<path d="M84.7503 91.2881C87.1258 87.1796 90.579 83.7985 94.7366 81.51C91.8394 85.4787 89.9606 90.0977 89.2649 94.9618C88.5693 99.826 89.078 104.786 90.7466 109.408C90.8279 109.641 90.9543 109.855 91.1184 110.038C91.2826 110.222 91.4813 110.371 91.7032 110.478C91.9251 110.585 92.1658 110.647 92.4117 110.661C92.6576 110.675 92.9038 110.64 93.1362 110.558C93.3687 110.477 93.5828 110.351 93.7664 110.187C93.95 110.022 94.0995 109.824 94.2063 109.602C94.3131 109.38 94.3752 109.139 94.389 108.893C94.4027 108.647 94.3679 108.401 94.2866 108.169C92.3824 102.882 92.21 97.1268 93.7943 91.7358C95.3786 86.3447 98.6375 81.5977 103.099 78.1819C103.484 77.8741 103.749 77.4404 103.847 76.9569C103.944 76.4734 103.868 75.9711 103.632 75.5381C103.396 75.1051 103.015 74.769 102.555 74.589C102.096 74.409 101.588 74.3965 101.121 74.5538C92.5128 77.5144 84.9584 82.4287 80.9234 90.5869C80.1734 84 82.6503 79.6387 86.3853 74.805C86.7199 74.4695 86.9183 74.0219 86.9422 73.5487C86.9661 73.0755 86.8138 72.6102 86.5148 72.2426C86.2158 71.8751 85.7912 71.6314 85.323 71.5585C84.8548 71.4856 84.3763 71.5888 83.9797 71.8481C78.2277 75.3873 73.619 80.511 70.7066 86.6044C70.9317 80.8067 72.7388 75.1811 75.9322 70.3369C76.226 69.8924 76.3395 69.3528 76.2497 68.8277C76.1599 68.3026 75.8736 67.8313 75.4489 67.5097C75.0241 67.1881 74.4929 67.0403 73.9631 67.0963C73.4333 67.1523 72.9447 67.4079 72.5966 67.8112C70.727 69.9781 69.0235 72.2827 67.5003 74.7056V48.75H74.0628C75.306 48.75 76.4983 48.2561 77.3774 47.3771C78.2565 46.498 78.7503 45.3057 78.7503 44.0625V38.4375C78.7503 37.1943 78.2565 36.002 77.3774 35.1229C76.4983 34.2439 75.306 33.75 74.0628 33.75H67.5003V28.125H75.0003C75.9949 28.125 76.9487 27.7299 77.652 27.0266C78.3552 26.3234 78.7503 25.3696 78.7503 24.375V23.2031C78.7506 21.8796 78.49 20.5689 77.9837 19.3461C77.4773 18.1233 76.7349 17.0122 75.799 16.0763C74.8632 15.1404 73.7521 14.398 72.5292 13.8916C71.3064 13.3853 69.9957 13.1248 68.6722 13.125H51.3284C50.0049 13.1248 48.6943 13.3853 47.4714 13.8916C46.2486 14.398 45.1375 15.1404 44.2016 16.0763C43.2657 17.0122 42.5233 18.1233 42.017 19.3461C41.5106 20.5689 41.2501 21.8796 41.2503 23.2031V24.375C41.2503 25.3696 41.6454 26.3234 42.3487 27.0266C43.0519 27.7299 44.0057 28.125 45.0003 28.125H52.5003V33.75H45.9378C44.6946 33.75 43.5023 34.2439 42.6232 35.1229C41.7442 36.002 41.2503 37.1943 41.2503 38.4375V44.0625C41.2503 45.3057 41.7442 46.498 42.6232 47.3771C43.5023 48.2561 44.6946 48.75 45.9378 48.75H52.5003V72.8269C51.4934 71.5144 50.5072 70.365 49.5959 69.3844C49.2441 69.0077 48.7658 68.7739 48.2525 68.7276C47.7391 68.6812 47.2267 68.8256 46.8131 69.1332C46.3995 69.4408 46.1137 69.89 46.0104 70.395C45.907 70.8999 45.9933 71.4253 46.2528 71.8706C47.7248 74.3829 48.9373 77.0384 49.8716 79.7962C48.4233 78.0017 46.6757 76.471 44.7059 75.2719C44.3287 74.9872 43.8595 74.8522 43.3887 74.8927C42.9179 74.9332 42.4786 75.1465 42.1556 75.4914C41.8326 75.8363 41.6485 76.2885 41.6389 76.761C41.6293 77.2335 41.7947 77.6928 42.1034 78.0506C43.3917 79.7769 44.4623 81.6555 45.2909 83.6438C40.9934 77.3194 33.8966 72.3019 24.0172 68.7375C23.52 68.5612 22.9746 68.5784 22.4896 68.7859C22.0045 68.9933 21.6153 69.3757 21.3993 69.857C21.1834 70.3384 21.1565 70.8833 21.324 71.3836C21.4915 71.8838 21.8412 72.3027 22.3034 72.5569C26.9786 75.444 30.8317 79.4862 33.4917 84.2942C36.1516 89.1022 37.5289 94.5141 37.4909 100.009C35.0272 91.2188 27.2834 84.9337 19.1834 80.7337C18.7504 80.5106 18.2533 80.4453 17.7773 80.5489C17.3014 80.6525 16.8763 80.9186 16.5753 81.3015C16.2742 81.6844 16.1159 82.1603 16.1276 82.6472C16.1392 83.1342 16.32 83.6019 16.6391 83.97C23.0297 91.3365 26.4223 100.834 26.1453 110.582C26.1329 111.079 26.3185 111.561 26.6613 111.921C27.0042 112.282 27.4761 112.491 27.9734 112.504C28.4707 112.516 28.9526 112.331 29.313 111.988C29.6734 111.645 29.8829 111.173 29.8953 110.676C30.1 102.831 28.1548 95.0789 24.2703 88.26C34.8922 96.2381 34.2847 103.605 35.0947 108.435C35.1803 108.95 35.4357 109.421 35.8202 109.775C36.2046 110.128 36.6961 110.342 37.2165 110.384C37.7368 110.425 38.2561 110.292 38.6918 110.004C39.1275 109.717 39.4546 109.292 39.6209 108.797C41.2979 103.452 41.6023 97.7703 40.5062 92.2765C39.4102 86.7826 36.9488 81.6531 33.3491 77.3606C44.9891 84.8306 47.2503 93.9656 46.4459 106.875C46.2491 110.046 46.1066 112.335 48.3116 112.699C52.9616 113.449 57.3566 96.6131 54.9041 84.0675C58.6391 92.34 58.8059 98.0306 57.9359 106.549C57.7484 108.424 56.9984 112.924 60.0622 112.725C62.2747 112.695 62.3703 110.588 62.5428 106.766C62.4673 98.7555 64.0399 90.8148 67.1628 83.4375C65.4753 96.9881 72.8966 113.88 78.5741 112.688C83.5803 111.602 78.9828 101.674 84.7503 91.2881ZM45.0003 23.2031C45.0003 21.5248 45.667 19.9152 46.8538 18.7285C48.0405 17.5417 49.6501 16.875 51.3284 16.875H68.6572C70.3369 16.875 71.948 17.5412 73.1372 18.7276C74.3263 19.9139 74.9963 21.5234 75.0003 23.2031C75.0008 23.356 74.9711 23.5075 74.9129 23.6489C74.8546 23.7902 74.7691 23.9187 74.661 24.0269C74.553 24.1351 74.4247 24.2209 74.2834 24.2793C74.1421 24.3378 73.9907 24.3677 73.8378 24.3675H46.1628C45.8546 24.367 45.5592 24.2444 45.3413 24.0265C45.1234 23.8086 45.0008 23.5132 45.0003 23.205V23.2031ZM56.2503 28.125H63.7503V33.75H56.2503V28.125ZM45.0003 44.0625V38.4375C45.0003 38.1889 45.0991 37.9504 45.2749 37.7746C45.4507 37.5988 45.6892 37.5 45.9378 37.5H74.0628C74.3114 37.5 74.5499 37.5988 74.7257 37.7746C74.9015 37.9504 75.0003 38.1889 75.0003 38.4375V44.0625C75.0003 44.3111 74.9015 44.5496 74.7257 44.7254C74.5499 44.9012 74.3114 45 74.0628 45H45.9378C45.6892 45 45.4507 44.9012 45.2749 44.7254C45.0991 44.5496 45.0003 44.3111 45.0003 44.0625ZM50.3684 103.431C50.4272 101.239 50.3294 99.0459 50.0759 96.8681C50.7671 93.5501 50.7951 90.1282 50.1584 86.7994C50.7434 87.7369 51.3059 88.7681 51.8459 89.8631L51.8666 89.94C52.094 94.4881 51.5882 99.0432 50.3684 103.431ZM60.9584 90C59.8849 86.0017 58.3026 82.1578 56.2503 78.5625V48.75H63.7503V81.8138C62.5972 84.4615 61.6635 87.1994 60.9584 90ZM77.4041 108.666C74.3497 104.778 72.3063 100.195 71.4566 95.325C72.6357 90.5964 74.821 86.1777 77.8634 82.3706C76.5225 87.1864 76.8085 92.3102 78.6772 96.9469C77.9596 100.816 77.534 104.733 77.4041 108.666Z" stroke="#54452E" stroke-width="2" mask="url(#path-1-inside-1_244_828)"/>
<path d="M106.875 31.375H103.125C102.76 31.375 102.411 31.2301 102.153 30.9723C101.895 30.7144 101.75 30.3647 101.75 30C101.75 29.6353 101.895 29.2856 102.153 29.0277C102.411 28.7699 102.76 28.625 103.125 28.625H106.875C107.24 28.625 107.589 28.7699 107.847 29.0277C108.105 29.2856 108.25 29.6353 108.25 30C108.25 30.3647 108.105 30.7144 107.847 30.9723C107.589 31.2301 107.24 31.375 106.875 31.375ZM97.5 31.375H93.75C93.3853 31.375 93.0356 31.2301 92.7777 30.9723C92.5199 30.7144 92.375 30.3647 92.375 30C92.375 29.6353 92.5199 29.2856 92.7777 29.0277C93.0356 28.7699 93.3853 28.625 93.75 28.625H97.5C97.8647 28.625 98.2144 28.7699 98.4723 29.0277C98.7301 29.2856 98.875 29.6353 98.875 30C98.875 30.3647 98.7301 30.7144 98.4723 30.9723C98.2144 31.2301 97.8647 31.375 97.5 31.375ZM88.125 31.375H84.375C84.0103 31.375 83.6606 31.2301 83.4027 30.9723C83.1449 30.7144 83 30.3647 83 30C83 29.6353 83.1449 29.2856 83.4027 29.0277C83.6606 28.7699 84.0103 28.625 84.375 28.625H88.125C88.4897 28.625 88.8394 28.7699 89.0973 29.0277C89.3551 29.2856 89.5 29.6353 89.5 30C89.5 30.3647 89.3551 30.7144 89.0973 30.9723C88.8394 31.2301 88.4897 31.375 88.125 31.375Z" stroke="#54452E"/>
<path d="M83.7602 19.3942L83.7601 19.3943C83.4337 19.5573 83.1854 19.8433 83.0698 20.1894C82.9543 20.5356 82.981 20.9134 83.144 21.2398C83.307 21.5662 83.5931 21.8145 83.9392 21.9301C84.2852 22.0456 84.6629 22.019 84.9892 21.8561L83.7602 19.3942ZM83.7602 19.3942L87.1127 17.7189C87.4381 17.56 87.8131 17.5358 88.1563 17.6518C88.5 17.7679 88.7839 18.0152 88.9461 18.3398C89.1083 18.6643 89.1356 19.0398 89.0221 19.3845C88.9088 19.7285 88.6643 20.014 88.3418 20.1788C88.3413 20.1791 88.3408 20.1793 88.3403 20.1796L84.9895 21.8559L83.7602 19.3942ZM100.536 11.011L100.537 11.0105L103.887 9.32533C103.887 9.32498 103.888 9.32463 103.889 9.32428C104.214 9.16558 104.589 9.14153 104.932 9.25742C105.276 9.37357 105.56 9.62086 105.722 9.94542C105.884 10.27 105.911 10.6455 105.798 10.9901L106.273 11.1464L105.798 10.9901C105.684 11.3343 105.44 11.6199 105.117 11.7847C105.117 11.7848 105.116 11.785 105.116 11.7852L101.767 13.4711C101.767 13.4711 101.766 13.4712 101.766 13.4713C101.44 13.6343 101.063 13.6611 100.717 13.5459C100.371 13.4306 100.085 13.1826 99.9213 12.8564C99.7581 12.5302 99.7312 12.1525 99.8465 11.8064C99.9618 11.4603 100.21 11.1742 100.536 11.011ZM91.4668 15.9951C91.5801 15.6511 91.8246 15.3656 92.147 15.2008L95.4977 13.5264C95.8231 13.3675 96.1981 13.3433 96.5413 13.4593C96.885 13.5754 97.1689 13.8227 97.3311 14.1473C97.4933 14.4718 97.5206 14.8473 97.4071 15.192C97.2939 15.536 97.0494 15.8214 96.7269 15.9863L93.3763 17.6606C93.0509 17.8196 92.6758 17.8437 92.3327 17.7278C91.989 17.6116 91.7051 17.3643 91.5429 17.0398C91.3807 16.7152 91.3534 16.3397 91.4668 15.9951Z" stroke="#54452E"/>
<path d="M105.615 48.4568L105.615 48.4571C105.943 48.6202 106.192 48.9069 106.308 49.2539C106.425 49.6009 106.398 49.9799 106.235 50.3075L106.683 50.5304L106.235 50.3075C106.072 50.6351 105.785 50.8845 105.438 51.0008C105.092 51.117 104.713 51.0908 104.386 50.928C104.385 50.9279 104.385 50.9277 104.385 50.9276L101.034 49.2421C101.034 49.242 101.034 49.2418 101.033 49.2416C100.711 49.0768 100.466 48.7912 100.353 48.447C100.239 48.1024 100.267 47.7269 100.429 47.4023C100.591 47.0778 100.875 46.8305 101.218 46.7143C101.562 46.5984 101.937 46.6225 102.262 46.7815C102.263 46.7817 102.263 46.782 102.264 46.7823L105.615 48.4568ZM95.9703 46.7103L95.8687 46.6677L92.6478 45.0582C92.3254 44.8933 92.0809 44.6079 91.9676 44.2639C91.8542 43.9193 91.8815 43.5438 92.0437 43.2192C92.2059 42.8947 92.4898 42.6474 92.8335 42.5312C93.1767 42.4153 93.5517 42.4394 93.8771 42.5984L97.2131 44.2654C97.5067 44.4427 97.7236 44.7236 97.8209 45.0529L98.3004 44.9113L97.8209 45.0529C97.9196 45.3873 97.8877 45.7467 97.7315 46.0584C97.5753 46.3701 97.3065 46.6108 96.9795 46.7319C96.6525 46.8529 96.2918 46.8452 95.9703 46.7103ZM87.5852 42.5204L87.4772 42.4746L84.263 40.8658C83.9405 40.7009 83.6959 40.4155 83.5826 40.0714C83.4692 39.7268 83.4965 39.3513 83.6587 39.0267C83.8209 38.7022 84.1048 38.4549 84.4485 38.3387C84.7916 38.2228 85.1666 38.2469 85.492 38.4058L88.8287 40.0751C89.1239 40.2519 89.3422 40.5332 89.4402 40.8634C89.5396 41.1985 89.5077 41.5588 89.351 41.8711C89.1943 42.1835 88.9245 42.4245 88.5965 42.5451C88.2685 42.6657 87.9069 42.6569 87.5852 42.5204Z" stroke="#54452E"/>
<path d="M35.625 31.375H31.875C31.5103 31.375 31.1606 31.2301 30.9027 30.9723C30.6449 30.7144 30.5 30.3647 30.5 30C30.5 29.6353 30.6449 29.2856 30.9027 29.0277C31.1606 28.7699 31.5103 28.625 31.875 28.625H35.625C35.9897 28.625 36.3394 28.7699 36.5973 29.0277C36.8551 29.2856 37 29.6353 37 30C37 30.3647 36.8551 30.7144 36.5973 30.9723C36.3394 31.2301 35.9897 31.375 35.625 31.375ZM26.25 31.375H22.5C22.1353 31.375 21.7856 31.2301 21.5277 30.9723L21.1742 31.3258L21.5277 30.9723C21.2699 30.7144 21.125 30.3647 21.125 30C21.125 29.6353 21.2699 29.2856 21.5277 29.0277L21.1742 28.6742L21.5277 29.0277C21.7856 28.7699 22.1353 28.625 22.5 28.625H26.25C26.6147 28.625 26.9644 28.7699 27.2223 29.0277L27.5758 28.6742L27.2223 29.0277C27.4801 29.2856 27.625 29.6353 27.625 30C27.625 30.3647 27.4801 30.7144 27.2223 30.9723L27.5758 31.3258L27.2223 30.9723C26.9644 31.2301 26.6147 31.375 26.25 31.375ZM16.875 31.375H13.125C12.7603 31.375 12.4106 31.2301 12.1527 30.9723C11.8949 30.7144 11.75 30.3647 11.75 30C11.75 29.6353 11.8949 29.2856 12.1527 29.0277C12.4106 28.7699 12.7603 28.625 13.125 28.625H16.875C17.2397 28.625 17.5894 28.7699 17.8473 29.0277C18.1051 29.2856 18.25 29.6353 18.25 30C18.25 30.3647 18.1051 30.7144 17.8473 30.9723C17.5894 31.2301 17.2397 31.375 16.875 31.375Z" stroke="#54452E"/>
<path d="M36.2396 19.3942L36.2402 19.3945C36.5678 19.5577 36.8172 19.8443 36.9335 20.1913C37.0497 20.5384 37.0234 20.9174 36.8602 21.245L37.3078 21.4679L36.8602 21.245C36.6971 21.5726 36.4104 21.822 36.0634 21.9383C35.7167 22.0544 35.338 22.0282 35.0106 21.8654C35.0103 21.8653 35.01 21.8652 35.0098 21.865L31.6595 20.1796C31.6591 20.1794 31.6588 20.1792 31.6584 20.179C31.3357 20.0143 31.091 19.7287 30.9776 19.3845L30.5027 19.5408L30.9776 19.3845C30.8642 19.0398 30.8915 18.6643 31.0537 18.3398C31.2159 18.0152 31.4998 17.7679 31.8435 17.6518C32.1866 17.5358 32.5617 17.56 32.8871 17.7189C32.8876 17.7192 32.8882 17.7194 32.8887 17.7197L36.2396 19.3942ZM19.4684 11.0105L19.4694 11.011C19.7956 11.1742 20.0436 11.4603 20.1589 11.8064C20.2742 12.1525 20.2473 12.5302 20.0841 12.8564C19.9209 13.1826 19.6347 13.4306 19.2887 13.5459C18.9428 13.6611 18.5653 13.6343 18.2391 13.4713C18.239 13.4712 18.2388 13.4711 18.2387 13.4711L14.8895 11.7852C14.8891 11.785 14.8888 11.7849 14.8885 11.7847C14.5657 11.6199 14.321 11.3343 14.2076 10.9901C14.0942 10.6455 14.1215 10.27 14.2837 9.94542C14.4459 9.62087 14.7298 9.37357 15.0735 9.25742C15.4164 9.14153 15.7912 9.16558 16.1165 9.32427L19.4684 11.0105ZM27.6671 17.7278C27.3239 17.8437 26.9489 17.8196 26.6235 17.6606L23.2728 15.9863C22.9504 15.8214 22.7059 15.536 22.5926 15.192C22.4792 14.8473 22.5065 14.4718 22.6687 14.1473C22.8309 13.8227 23.1148 13.5754 23.4585 13.4593C23.8016 13.3433 24.1767 13.3675 24.5021 13.5264L27.8527 15.2008C28.1752 15.3656 28.4197 15.6511 28.5329 15.9951C28.6464 16.3397 28.6191 16.7152 28.4569 17.0398C28.2947 17.3643 28.0108 17.6116 27.6671 17.7278Z" stroke="#54452E"/>
<path d="M14.3849 48.4569L14.3855 48.4566L17.7364 46.7821C17.7369 46.7819 17.7374 46.7816 17.7379 46.7813C18.0634 46.6224 18.4384 46.5982 18.7816 46.7142C19.1253 46.8303 19.4092 47.0776 19.5714 47.4022C19.7336 47.7267 19.7609 48.1022 19.6474 48.4469C19.5341 48.7911 19.2894 49.0767 18.9666 49.2415C18.9663 49.2416 18.9659 49.2418 18.9656 49.242L15.6153 50.9274C15.615 50.9276 15.6148 50.9277 15.6145 50.9278C15.2871 51.0906 14.9084 51.1168 14.5617 51.0007C14.2146 50.8844 13.928 50.635 13.7648 50.3074C13.6017 49.9798 13.5753 49.6008 13.6916 49.2537C13.8079 48.9067 14.0573 48.6201 14.3849 48.4569ZM22.0921 45.0575C22.2054 44.7135 22.4499 44.428 22.7723 44.2632L26.123 42.5888C26.4484 42.4299 26.8234 42.4057 27.1666 42.5217C27.5103 42.6379 27.7942 42.8851 27.9564 43.2097C28.1186 43.5342 28.1459 43.9097 28.0324 44.2544C27.9191 44.5984 27.6747 44.8838 27.3522 45.0487L24.0016 46.723C23.6762 46.882 23.3011 46.9061 22.958 46.7902C22.6143 46.674 22.3304 46.4267 22.1682 46.1022C22.006 45.7776 21.9787 45.4021 22.0921 45.0575ZM31.1613 40.0734L34.512 38.3971C34.5125 38.3968 34.5131 38.3966 34.5137 38.3963C34.8391 38.2374 35.2141 38.2133 35.5572 38.3292C35.9009 38.4453 36.1848 38.6926 36.347 39.0172C36.5092 39.3417 36.5365 39.7172 36.4231 40.0619C36.3098 40.406 36.0653 40.6914 35.7427 40.8562C35.7422 40.8565 35.7417 40.8567 35.7412 40.857L32.392 42.5335C32.0658 42.6967 31.6881 42.7236 31.342 42.6083C30.9959 42.493 30.7098 42.245 30.5466 41.9188L30.0995 42.1425L30.5466 41.9188C30.3834 41.5926 30.3565 41.2149 30.4718 40.8688C30.587 40.5227 30.8351 40.2366 31.1613 40.0734Z" stroke="#54452E"/>
</svg>
