<svg width="120" height="120" viewBox="0 0 120 120" fill="none" xmlns="http://www.w3.org/2000/svg">
<g clip-path="url(#clip0_244_809)">
<path d="M39.2098 93.5732V93.1865L38.8355 93.0892C35.7161 92.279 33.4033 89.4655 33.4033 86.1061V37.719C33.4033 33.7255 36.6517 30.4771 40.6453 30.4771H79.3549C83.3485 30.4771 86.5969 33.7255 86.5969 37.719V86.1061C86.5969 90.0996 83.3485 93.348 79.3549 93.348H78.8549V93.848V118.509H75.984V72.8016V72.1558L75.3587 72.3175C71.8072 73.2363 69.1775 76.4657 69.1775 80.2996V91.9125C69.1775 92.7051 68.5359 93.348 67.742 93.348H42.5807H42.0807V93.848V118.509H39.2098V93.5732ZM78.8549 89.9771V90.4771H79.3549C81.7659 90.4771 83.7259 88.5171 83.7259 86.1061V37.719C83.7259 35.308 81.7659 33.348 79.3549 33.348H40.6453C38.2343 33.348 36.2743 35.308 36.2743 37.719V86.1061C36.2743 88.5171 38.2343 90.4771 40.6453 90.4771H65.8065H66.3065V89.9771V80.2996C66.3065 74.1713 71.2911 69.1867 77.4194 69.1867C78.2133 69.1867 78.8549 69.8296 78.8549 70.6222V89.9771Z" stroke="#54452E"/>
<path d="M107.486 51.4929L107.729 51.0984L114.879 39.47L114.879 39.4698C115.12 39.0781 115.159 38.5944 114.982 38.1677C114.805 37.7409 114.436 37.427 113.989 37.3209L113.989 37.3208L100.709 34.1582L100.259 34.0509L100.331 33.5933L102.476 20.1127L102.476 20.1115C102.549 19.6593 102.399 19.197 102.074 18.8725L102.073 18.8717C101.749 18.5459 101.291 18.3956 100.835 18.4688L100.834 18.4689L87.3514 20.6134L86.8939 20.6862L86.7865 20.2354L83.6239 6.95608L83.6238 6.95563C83.5179 6.50905 83.2026 6.13979 82.7768 5.96273C82.3485 5.78544 81.8644 5.8244 81.4794 6.0645L81.4767 6.0662L69.8464 13.2159L69.4519 13.4584L69.1799 13.0836L61.1632 2.03796C60.9083 1.68699 60.4708 1.49072 60.001 1.49072C59.5311 1.49072 59.0937 1.68699 58.8387 2.03796L50.8201 13.0837L50.5481 13.4584L50.1536 13.2158L38.5233 6.06422L38.5231 6.06413C38.1321 5.82348 37.6466 5.78581 37.223 5.96087C36.7973 6.13795 36.4821 6.50717 36.3762 6.95369L36.3761 6.95408L33.2154 20.2334L33.1081 20.6843L32.6504 20.6114L19.1705 18.4654C19.1701 18.4653 19.1696 18.4653 19.1692 18.4652C18.7076 18.3947 18.2494 18.5456 17.9285 18.8678L17.9277 18.8686C17.6016 19.1948 17.4528 19.6551 17.5259 20.1077L17.526 20.1088L19.6706 33.5894L19.7434 34.047L19.2926 34.1544L6.01131 37.317L6.01087 37.3171C5.56351 37.4232 5.19483 37.737 5.01808 38.1638C4.84157 38.59 4.87992 39.0719 5.12144 39.4661L107.486 51.4929ZM107.486 51.4929L107.861 51.7649M107.486 51.4929L107.861 51.7649M17.0303 101.696L19.1748 88.2157L5.89548 85.0551C5.29161 84.9119 4.79419 84.488 4.55613 83.9131C4.31806 83.3383 4.37032 82.686 4.69548 82.1577L11.8452 70.5293L17.0303 101.696ZM17.0303 101.696C16.9316 102.308 17.1348 102.931 17.5723 103.369C18.0097 103.806 18.6232 104.007 19.2445 103.912L17.0303 101.696ZM107.861 51.7649L118.909 59.7836C119.28 60.0531 119.5 60.4851 119.5 60.9448C119.5 61.4043 119.28 61.8359 118.908 62.1054L118.907 62.1059L107.859 70.1246L107.484 70.3966L107.727 70.7911L114.876 82.4209C115.118 82.8153 115.157 83.2974 114.98 83.7238C114.803 84.1506 114.435 84.4644 113.987 84.5705L113.987 84.5706L100.705 87.7332L100.255 87.8405L100.327 88.2981L102.472 101.779L102.472 101.78C102.545 102.232 102.396 102.693 102.07 103.019L102.069 103.02C101.801 103.29 101.434 103.44 101.055 103.44C100.981 103.44 100.906 103.434 100.828 103.422C100.827 103.422 100.827 103.422 100.826 103.422L86.0703 101.074M107.861 51.7649L86.0703 101.074M86.0703 101.074L86.5211 98.2372L98.6465 100.168L99.3272 100.276L99.2189 99.5953L97.2119 86.9761C97.0941 86.2332 97.5665 85.5274 98.2969 85.3538L98.2971 85.3538L110.723 82.3963L111.395 82.2364L111.033 81.648L104.344 70.7687L104.344 70.7684C103.951 70.1297 104.116 69.2958 104.723 68.8552L115.064 61.3494L115.621 60.9448L115.064 60.5401L104.725 53.0343L104.725 53.0343C104.118 52.5937 103.952 51.7598 104.346 51.1211L104.346 51.1208L111.035 40.2415L111.397 39.6531L110.725 39.4932L98.3009 36.5358L98.3008 36.5357C97.5704 36.3621 97.0979 35.6563 97.2158 34.9134L99.2228 22.2962L99.3311 21.6155L98.6504 21.7239L86.0349 23.7323C86.0342 23.7324 86.0336 23.7325 86.033 23.7326C85.2767 23.8461 84.5805 23.3739 84.4092 22.6485L84.409 22.6476L81.4496 10.2237L81.2896 9.55198L80.7013 9.91366L69.822 16.6027L69.8204 16.6037C69.1907 16.994 68.3529 16.8297 67.9085 16.222L86.0703 101.074ZM12.2711 51.0965L5.12174 39.4666L67.9077 16.221L60.4047 5.88268L59.9999 5.32504L59.5953 5.88273L52.0942 16.221C52.0941 16.2211 52.0939 16.2213 52.0938 16.2215C51.6497 16.8293 50.8151 16.9946 50.1806 16.6031L50.18 16.6027L39.3006 9.91176L38.7123 9.54989L38.5523 10.2219L35.5949 22.6457C35.4226 23.3691 34.6992 23.8423 33.9715 23.7308C33.9711 23.7307 33.9707 23.7306 33.9704 23.7306L21.3534 21.7219L20.6728 21.6136L20.781 22.2943L22.7881 34.9134C22.9059 35.6563 22.4335 36.3621 21.7031 36.5357L21.7029 36.5358L9.27713 39.4932L8.60522 39.6531L8.96697 40.2415L15.656 51.1208L15.6562 51.1211C16.0494 51.7598 15.8844 52.5937 15.2773 53.0343L15.571 53.4389L15.2773 53.0343L4.93598 60.5401L4.37842 60.9448L4.93601 61.3494L15.2734 68.8514L15.2739 68.8517C15.8825 69.2924 16.0474 70.126 15.6542 70.7645L15.6541 70.7648L8.96504 81.6442L8.6033 82.2325L9.27518 82.3925L21.6991 85.3499L21.6992 85.3499C22.4296 85.5236 22.9021 86.2293 22.7842 86.9722L20.7772 99.5914L20.6689 100.272L21.3496 100.164L33.475 98.2333L33.9258 101.07L19.1691 103.418C19.1687 103.418 19.1683 103.418 19.1679 103.418C18.7029 103.489 18.2495 103.339 17.9258 103.015C17.6013 102.691 17.451 102.228 17.5239 101.776L17.5241 101.775L19.6686 88.2943L19.7414 87.8366L19.2906 87.7293L6.01126 84.5687L6.01087 84.5686C5.56352 84.4625 5.19483 84.1486 5.01808 83.7218C4.84135 83.2951 4.88024 82.8114 5.12131 82.4197L5.12142 82.4195L12.2711 70.7912L12.5136 70.3967L12.1389 70.1246L1.09309 62.1059L1.09233 62.1054C0.719629 61.8359 0.5 61.4043 0.5 60.9448C0.5 60.4855 0.719499 60.0531 1.09166 59.7813C1.09182 59.7812 1.09199 59.781 1.09215 59.7809L12.1389 51.763L12.5136 51.4909L12.2711 51.0965Z" stroke="#54452E"/>
<path d="M41.1455 41.09V38.219H44.0165V41.09H41.1455Z" stroke="#54452E"/>
<path d="M41.1455 48.8319V45.9609H44.0165V48.8319H41.1455Z" stroke="#54452E"/>
<path d="M41.1455 56.5738V53.7029H44.0165V56.5738H41.1455Z" stroke="#54452E"/>
</g>
<defs>
<clipPath id="clip0_244_809">
<rect width="120" height="120" fill="white"/>
</clipPath>
</defs>
</svg>
