<svg width="123" height="131" viewBox="0 0 123 131" fill="none" xmlns="http://www.w3.org/2000/svg">
<path fill-rule="evenodd" clip-rule="evenodd" d="M93.9993 2.34311C94.0364 3.44706 93.1715 4.37201 92.0675 4.40905C82.9421 4.71523 75.4885 9.44809 72.4693 15.701C81.0476 19.6622 87.0005 28.341 87.0005 38.4102V41.2954L108.041 45.6201L108.132 45.6389L108.222 45.6661C111.259 46.5918 115.746 49.7864 118.956 54.6388C122.229 59.5881 124.275 66.4105 122.102 74.5814C120.745 79.6832 118.246 83.2319 115.114 85.5759C112.009 87.9003 108.423 88.9363 105.03 89.2755C101.639 89.6144 98.3597 89.2671 95.7578 88.7504C93.1921 88.2408 91.1346 87.5354 90.193 87.0569C89.5719 86.7413 88.4517 86.1372 87.0005 85.2297V90.7902C87.0005 103.835 76.4254 114.41 63.3805 114.41H63.5005V128.41C63.5005 129.515 62.605 130.41 61.5005 130.41C60.3959 130.41 59.5005 129.515 59.5005 128.41V114.41H60.6205C47.5755 114.41 37.0005 103.835 37.0005 90.7902V84.5892C35.0642 85.8586 33.5651 86.6722 32.8079 87.0569C31.8663 87.5354 29.8088 88.2408 27.2432 88.7504C24.6412 89.2671 21.3615 89.6144 17.9711 89.2755C14.5781 88.9363 10.9917 87.9003 7.88653 85.5759C4.75517 83.2319 2.25596 79.6832 0.89921 74.5814C-1.27374 66.4105 0.77165 59.5881 4.04541 54.6388C7.25499 49.7864 11.7423 46.5918 14.7794 45.6661L14.8686 45.6389L14.9599 45.6201L37.0005 41.0898V38.4102C37.0005 27.7474 43.6758 18.6438 53.0755 15.0503C49.8016 9.10858 42.6152 4.72316 33.9322 4.42659C32.8283 4.38889 31.9639 3.46341 32.0016 2.35949C32.0393 1.25556 32.9648 0.391217 34.0687 0.428922C44.2575 0.776921 53.1478 6.11961 56.9943 13.9115C58.6118 13.5828 60.286 13.4102 62.0005 13.4102C64.3207 13.4102 66.567 13.7262 68.6989 14.3177C72.3668 6.29066 81.4771 0.762136 91.9334 0.411303C93.0373 0.374263 93.9623 1.23916 93.9993 2.34311ZM41.0005 40.2677L59.5685 36.4511L61.1034 36.1356L61.1087 35.9735L61.5005 36.054L61.8922 35.9735L61.8976 36.1356L63.4324 36.4511L83.0005 40.4732V38.4102C83.0005 26.8122 73.5984 17.4102 62.0005 17.4102C50.4025 17.4102 41.0005 26.8122 41.0005 38.4102V40.2677ZM61.5005 47.5183C60.2643 56.3895 56.8693 63.6428 52.8098 69.4102H70.1912C66.1317 63.6428 62.7366 56.3895 61.5005 47.5183ZM73.2952 73.4102H49.7057C46.7841 76.8389 43.7257 79.5957 41.0005 81.722V84.4102H83.0005V82.4858C80.0378 80.2707 76.5801 77.2652 73.2952 73.4102ZM83.0005 88.4102H41.0005V90.7902C41.0005 93.4926 41.5468 96.0674 42.5351 98.4102H81.4658C82.4541 96.0674 83.0005 93.4926 83.0005 90.7902V88.4102ZM79.1909 102.41H44.81C48.3819 107.262 54.1335 110.41 60.6205 110.41H63.3805C69.8674 110.41 75.6191 107.262 79.1909 102.41ZM15.8641 49.5179C13.8666 50.1633 10.1482 52.6629 7.38162 56.8455C4.64109 60.9887 2.92804 66.6464 4.76485 73.5534C5.9142 77.8753 7.94296 80.6216 10.2836 82.3736C12.6504 84.1453 15.4799 85.0065 18.369 85.2953C21.2608 85.5844 24.1294 85.2907 26.464 84.827C28.8349 84.3561 30.5022 83.7418 30.9959 83.4909C34.7879 81.564 57.627 68.5207 57.9958 40.858L15.8641 49.5179ZM65.0051 40.858C65.374 68.5207 88.213 81.564 92.0051 83.4909C92.4987 83.7418 94.166 84.3561 96.537 84.827C98.8716 85.2907 101.74 85.5844 104.632 85.2953C107.521 85.0065 110.351 84.1453 112.717 82.3736C115.058 80.6216 117.087 77.8753 118.236 73.5534C120.073 66.6464 118.36 60.9887 115.619 56.8455C112.853 52.6629 109.134 50.1633 107.137 49.5179L65.0051 40.858ZM92.9994 2.37662C93.018 2.9286 92.5855 3.39107 92.0335 3.40959C82.1717 3.74048 74.0422 9.08776 71.1468 16.2147C79.8645 19.8112 86 28.3942 86 38.4102V42.1107L107.839 46.5996L107.885 46.609L107.929 46.6226C110.701 47.4675 115.013 50.4911 118.121 55.1904C121.261 59.9382 123.224 66.4694 121.135 74.3244C119.83 79.2312 117.448 82.5793 114.515 84.7753C111.594 86.9615 108.197 87.9538 104.93 88.2804C101.664 88.6069 98.4872 88.273 95.9521 87.7695C93.4352 87.2696 91.4752 86.587 90.6455 86.1654C89.8313 85.7516 88.1538 84.8378 86 83.3902V90.7902C86 103.283 75.8727 113.41 63.38 113.41H62.5L62.5 128.41C62.5 128.962 62.0523 129.41 61.5 129.41C60.9477 129.41 60.5 128.962 60.5 128.41L60.5 113.41C48.0625 113.345 38 103.243 38 90.7902V82.7026C35.3688 84.5525 33.2909 85.6896 32.3545 86.1654C31.5248 86.587 29.5648 87.2696 27.0479 87.7695C24.5128 88.273 21.3359 88.6069 18.0701 88.2804C14.8031 87.9538 11.4059 86.9615 8.48533 84.7753C5.55166 82.5793 3.17006 79.2312 1.86516 74.3244C-0.223753 66.4694 1.73855 59.9382 4.879 55.1904C7.98736 50.4911 12.2985 47.4675 15.0705 46.6226L15.1151 46.609L15.1607 46.5996L38 41.9052V38.4102C38 27.7815 44.9091 18.7665 54.4811 15.6115C51.3028 8.77798 43.4266 3.75028 33.9659 3.42715C33.4139 3.4083 32.9817 2.94556 33.0006 2.3936C33.0194 1.84164 33.4822 1.40946 34.0341 1.42832C44.234 1.77669 52.9712 7.27595 56.4279 15.0604C58.216 14.6352 60.0817 14.4102 62 14.4102C64.5329 14.4102 66.9742 14.8025 69.2664 15.5298C72.4917 7.49149 81.4586 1.76328 91.9665 1.41072C92.5184 1.3922 92.9809 1.82465 92.9994 2.37662ZM40 41.4941L59.7694 37.4306L60.9312 37.1918L60.9702 38.3773C61.4243 52.2102 56.6485 62.7655 50.8372 70.4102H72.1628C66.3515 62.7655 61.5757 52.2102 62.0299 38.3773L62.0688 37.1918L63.2307 37.4306L84 41.6996V38.4102C84 26.2599 74.1503 16.4102 62 16.4102C49.8497 16.4102 40 26.2599 40 38.4102V41.4941ZM73.7593 72.4102H49.2407C46.1416 76.1109 42.8653 79.0347 40 81.2331V85.4102H84V81.9839C80.9135 79.7165 77.2255 76.5493 73.7593 72.4102ZM84 87.4102H40V90.7902C40 93.8675 40.6741 96.7873 41.8827 99.4102H82.1173C83.3259 96.7873 84 93.8675 84 90.7902V87.4102ZM81.0585 101.41H42.9416C46.5489 107.402 53.1164 111.41 60.62 111.41H63.38C70.8836 111.41 77.4511 107.402 81.0585 101.41ZM15.6109 48.5489C13.3619 49.253 9.43464 51.9283 6.54711 56.2938C3.67327 60.6385 1.87713 66.5874 3.79798 73.8103C4.99918 78.3272 7.14555 81.2741 9.68385 83.1742C12.2352 85.084 15.254 85.9889 18.2691 86.2903C21.2855 86.5919 24.2569 86.2848 26.6583 85.8078C29.0779 85.3273 30.8428 84.6902 31.4484 84.3824C35.3503 82.3997 59.3031 68.7447 58.997 39.6312L15.6109 48.5489ZM64.003 39.6312C63.6969 68.7447 87.6497 82.3997 91.5516 84.3824C92.1572 84.6902 93.9221 85.3273 96.3417 85.8078C98.7431 86.2848 101.715 86.5919 104.731 86.2903C107.746 85.9889 110.765 85.084 113.316 83.1742C115.854 81.2741 118.001 78.3272 119.202 73.8103C121.123 66.5874 119.327 60.6385 116.453 56.2938C113.565 51.9283 109.638 49.253 107.389 48.5489L64.003 39.6312Z" fill="#54452E"/>
</svg>
