<svg width="74" height="118" viewBox="0 0 74 118" fill="none" xmlns="http://www.w3.org/2000/svg">
<path fill-rule="evenodd" clip-rule="evenodd" d="M36.5 0.410156C22.969 0.410156 12 11.3792 12 24.9102V29.4102V43.4102V56.9102V60.9102C12 73.9374 22.1676 84.59 35 85.365V95.3505C17.7059 94.3167 4 79.964 4 62.4102C4 61.3056 3.10457 60.4102 2 60.4102C0.89543 60.4102 0 61.3056 0 62.4102C0 82.1737 15.4954 98.3181 35 99.357V113.41H16C14.8954 113.41 14 114.306 14 115.41C14 116.515 14.8954 117.41 16 117.41H37H57C58.1046 117.41 59 116.515 59 115.41C59 114.306 58.1046 113.41 57 113.41H39V99.357C58.5046 98.3181 74 82.1737 74 62.4102C74 61.3056 73.1046 60.4102 72 60.4102C70.8954 60.4102 70 61.3056 70 62.4102C70 79.964 56.2941 94.3167 39 95.3505V85.2842C51.3567 84.0318 61 73.5972 61 60.9102V24.9102C61 11.3792 50.031 0.410156 36.5 0.410156ZM24.5 31.4102H16V41.4102H24.5C25.6046 41.4102 26.5 42.3056 26.5 43.4102C26.5 44.5147 25.6046 45.4102 24.5 45.4102H16V54.9102H24.5C25.6046 54.9102 26.5 55.8056 26.5 56.9102C26.5 58.0147 25.6046 58.9102 24.5 58.9102H16V60.9102C16 72.232 25.1782 81.4102 36.5 81.4102C47.8218 81.4102 57 72.232 57 60.9102V58.9102H48C46.8954 58.9102 46 58.0147 46 56.9102C46 55.8056 46.8954 54.9102 48 54.9102H57V45.4102H48C46.8954 45.4102 46 44.5147 46 43.4102C46 42.3056 46.8954 41.4102 48 41.4102H57V31.4102H48C46.8954 31.4102 46 30.5147 46 29.4102C46 28.3056 46.8954 27.4102 48 27.4102H57V24.9102C57 13.5883 47.8218 4.41016 36.5 4.41016C25.1782 4.41016 16 13.5883 16 24.9102V27.4102H24.5C25.6046 27.4102 26.5 28.3056 26.5 29.4102C26.5 30.5147 25.6046 31.4102 24.5 31.4102ZM36.5 1.41016C23.5213 1.41016 13 11.9315 13 24.9102V29.4102V43.4102V56.9102V60.9102C13 73.7218 23.2522 84.1389 36 84.4049V96.3957C17.6848 95.8667 3 80.8534 3 62.4102C3 61.8579 2.55228 61.4102 2 61.4102C1.44772 61.4102 1 61.8579 1 62.4102C1 81.958 16.5801 97.8669 36 98.3965V114.41H16C15.4477 114.41 15 114.858 15 115.41C15 115.962 15.4477 116.41 16 116.41H37H57C57.5523 116.41 58 115.962 58 115.41C58 114.858 57.5523 114.41 57 114.41H38V98.3965C57.4199 97.8669 73 81.958 73 62.4102C73 61.8579 72.5523 61.4102 72 61.4102C71.4477 61.4102 71 61.8579 71 62.4102C71 80.8534 56.3152 95.8667 38 96.3957V84.3631C50.2798 83.5895 60 73.385 60 60.9102V24.9102C60 11.9315 49.4787 1.41016 36.5 1.41016ZM24.5 30.4102H15V42.4102H24.5C25.0523 42.4102 25.5 42.8579 25.5 43.4102C25.5 43.9624 25.0523 44.4102 24.5 44.4102H15V55.9102H24.5C25.0523 55.9102 25.5 56.3579 25.5 56.9102C25.5 57.4624 25.0523 57.9102 24.5 57.9102H15V60.9102C15 72.7843 24.6259 82.4102 36.5 82.4102C48.3741 82.4102 58 72.7843 58 60.9102V57.9102H48C47.4477 57.9102 47 57.4624 47 56.9102C47 56.3579 47.4477 55.9102 48 55.9102H58V44.4102H48C47.4477 44.4102 47 43.9624 47 43.4102C47 42.8579 47.4477 42.4102 48 42.4102H58V30.4102H48C47.4477 30.4102 47 29.9624 47 29.4102C47 28.8579 47.4477 28.4102 48 28.4102H58V24.9102C58 13.036 48.3741 3.41016 36.5 3.41016C24.6259 3.41016 15 13.036 15 24.9102V28.4102H24.5C25.0523 28.4102 25.5 28.8579 25.5 29.4102C25.5 29.9624 25.0523 30.4102 24.5 30.4102Z" fill="#54452E"/>
</svg>
