<svg width="120" height="120" viewBox="0 0 120 120" fill="none" xmlns="http://www.w3.org/2000/svg">
<g clip-path="url(#clip0_244_639)">
<path d="M104.031 74.0625C104.031 75.0808 103.206 75.9062 102.188 75.9062C101.169 75.9062 100.344 75.0808 100.344 74.0625C100.344 73.0442 101.169 72.2188 102.188 72.2188C103.206 72.2188 104.031 73.0442 104.031 74.0625Z" stroke="#54452E"/>
<path d="M33.7188 22.5C33.7188 23.5183 32.8933 24.3438 31.875 24.3438C30.8567 24.3438 30.0312 23.5183 30.0312 22.5C30.0312 21.4817 30.8567 20.6562 31.875 20.6562C32.8933 20.6562 33.7188 21.4817 33.7188 22.5Z" stroke="#54452E"/>
<path d="M14.9688 78.75C14.9688 79.7683 14.1433 80.5938 13.125 80.5938C12.1067 80.5938 11.2812 79.7683 11.2812 78.75C11.2812 77.7317 12.1067 76.9062 13.125 76.9062C14.1433 76.9062 14.9688 77.7317 14.9688 78.75Z" stroke="#54452E"/>
<mask id="path-4-inside-1_244_639" fill="white">
<path d="M11.3576 31.3031C13.3892 41.0517 21.3043 48.9626 31.0529 50.9883C34.4684 51.6991 37.8697 51.7523 41.2126 51.1427C41.9056 51.772 42.7158 52.2534 43.5936 52.5638V57.6562H34.8865C32.2473 57.6562 29.6551 58.3481 27.3828 59.6316C26.0965 58.3896 24.3605 57.6562 22.4998 57.6562C18.6228 57.6562 15.4686 60.8105 15.4686 64.6875C15.4686 67.747 17.4336 70.3552 20.1676 71.3194C20.0736 74.9337 21.3615 78.468 23.7884 81.1505C28.2978 86.1345 35.7408 87.2454 41.5048 83.749C45.5051 81.3211 50.435 81.3811 53.7715 83.8973C56.3855 85.8701 57.6561 88.7862 57.6561 92.8125C57.6561 94.1067 58.7054 95.1562 59.9998 95.1562C66.444 95.1562 71.701 89.9147 71.7186 83.472C71.7362 76.9912 76.9932 71.7188 83.4373 71.7188H85.7811C99.2143 71.7188 110.468 60.2245 109.11 45.9865C107.953 33.8815 97.178 24.8438 84.874 24.8438H81.0936V14.0625H83.4373C84.3851 14.0625 85.2399 13.4913 85.6027 12.6157C85.9655 11.7398 85.7649 10.7318 85.0948 10.0615L75.7198 0.686484C74.8046 -0.228516 73.3205 -0.228516 72.4051 0.686484L63.0301 10.0615C62.3597 10.7318 62.1594 11.7398 62.5222 12.6157C62.8848 13.4913 63.7395 14.0625 64.6873 14.0625H67.0311V24.8438H65.6583L56.9698 16.1552C56.5301 15.7158 55.9339 15.4688 55.3123 15.4688C54.6908 15.4688 54.0945 15.7158 53.6551 16.1552L47.9276 21.8827C46.118 20.352 45.1109 17.8242 45.3983 15.2494C45.7578 12.03 48.083 9.8768 51.1065 9.49711C52.0491 9.37781 52.8265 8.70117 53.0748 7.78383C53.323 6.86648 52.9925 5.89008 52.2385 5.31187C47.7064 1.8368 42.2858 0 36.5623 0C20.2862 0 7.93741 14.8931 11.3576 31.3031ZM22.6217 67.0268C22.6128 67.0273 22.6041 67.0277 22.5955 67.0284C22.5633 67.0303 22.5319 67.0312 22.4998 67.0312C21.2075 67.0312 20.1561 65.9798 20.1561 64.6875C20.1561 63.3952 21.2075 62.3438 22.4998 62.3438C23.788 62.3438 24.8436 63.3825 24.8436 64.6875C24.8436 65.9381 23.8674 66.9659 22.6217 67.0268ZM84.874 29.5312C94.9421 29.5312 103.538 36.9551 104.443 46.4318C105.527 57.799 96.568 67.0312 85.7811 67.0312H83.4373C74.4153 67.0312 67.0555 74.4007 67.0311 83.4593C67.0226 86.565 64.9848 89.2055 62.1781 90.123C61.6362 85.8933 59.765 82.5483 56.5948 80.1558C51.7402 76.4939 44.6984 76.328 39.0734 79.7416C35.2646 82.0523 30.293 81.3527 27.2644 78.0059C25.5943 76.1597 24.7503 73.8049 24.8541 71.3159C27.5919 70.3474 29.5311 67.7386 29.5311 64.6875C29.5311 64.4006 29.5119 64.1163 29.4776 63.8346C31.0993 62.8673 32.9743 62.3438 34.8865 62.3438H76.4061C81.5755 62.3438 85.7811 58.1381 85.7811 52.9688C85.7811 47.7994 81.5755 43.5938 76.4061 43.5938C76.4061 43.5938 72.0352 43.5994 71.7186 43.6029V38.9062H74.0623C75.0101 38.9062 75.8649 38.3351 76.2277 37.4595C76.5905 36.5836 76.3899 35.5755 75.7198 34.9052L70.3458 29.5312H84.874ZM59.9998 43.5938C58.7054 43.5938 57.6561 44.6433 57.6561 45.9375V48.2812H52.9686V45.9375C52.9686 44.6433 51.9193 43.5938 50.6248 43.5938C49.3304 43.5938 48.2811 44.6433 48.2811 45.9375V48.2812H45.9373C44.6532 48.2812 43.5936 47.2406 43.5936 45.9375V38.9062H67.0311C67.0311 38.9062 67.0292 45.9462 67.029 45.9708C67.0126 47.2448 65.9621 48.2812 64.6873 48.2812H62.3436V45.9375C62.3436 44.6433 61.2943 43.5938 59.9998 43.5938ZM62.3436 52.9688V57.6562H48.2811V52.9688H62.3436ZM71.7186 24.8438V14.0625H76.4061V24.8438H71.7186ZM74.0623 5.65852L77.779 9.375H70.3456L74.0623 5.65852ZM71.3058 48.2803C71.7603 48.273 76.4061 48.2672 76.4061 48.2672C78.9908 48.2672 81.0936 50.3841 81.0936 52.9688C81.0936 55.5534 78.9908 57.6562 76.4061 57.6562H67.0311V52.5628C69.0132 51.8545 70.5938 50.2629 71.3058 48.2803ZM55.3123 21.1273L68.404 34.2188H42.2206L55.3123 21.1273ZM36.5623 4.6875C39.7262 4.6875 42.7765 5.37328 45.5656 6.69445C42.8792 8.47359 41.1207 11.3182 40.7396 14.7291C40.287 18.7835 41.7868 22.6791 44.5995 25.2108L34.9051 34.9052C34.2348 35.5755 34.0344 36.5836 34.3972 37.4595C34.76 38.3351 35.6145 38.9062 36.5626 38.9062H38.9063V45.9375C38.9063 46.2075 38.9265 46.4747 38.9567 46.74C36.6748 46.998 34.3458 46.8853 32.0075 46.399C24.058 44.7469 17.6035 38.2962 15.9469 30.3469C13.1403 16.8813 23.2325 4.6875 36.5623 4.6875Z"/>
</mask>
<path d="M11.3576 31.3031C13.3892 41.0517 21.3043 48.9626 31.0529 50.9883C34.4684 51.6991 37.8697 51.7523 41.2126 51.1427C41.9056 51.772 42.7158 52.2534 43.5936 52.5638V57.6562H34.8865C32.2473 57.6562 29.6551 58.3481 27.3828 59.6316C26.0965 58.3896 24.3605 57.6562 22.4998 57.6562C18.6228 57.6562 15.4686 60.8105 15.4686 64.6875C15.4686 67.747 17.4336 70.3552 20.1676 71.3194C20.0736 74.9337 21.3615 78.468 23.7884 81.1505C28.2978 86.1345 35.7408 87.2454 41.5048 83.749C45.5051 81.3211 50.435 81.3811 53.7715 83.8973C56.3855 85.8701 57.6561 88.7862 57.6561 92.8125C57.6561 94.1067 58.7054 95.1562 59.9998 95.1562C66.444 95.1562 71.701 89.9147 71.7186 83.472C71.7362 76.9912 76.9932 71.7188 83.4373 71.7188H85.7811C99.2143 71.7188 110.468 60.2245 109.11 45.9865C107.953 33.8815 97.178 24.8438 84.874 24.8438H81.0936V14.0625H83.4373C84.3851 14.0625 85.2399 13.4913 85.6027 12.6157C85.9655 11.7398 85.7649 10.7318 85.0948 10.0615L75.7198 0.686484C74.8046 -0.228516 73.3205 -0.228516 72.4051 0.686484L63.0301 10.0615C62.3597 10.7318 62.1594 11.7398 62.5222 12.6157C62.8848 13.4913 63.7395 14.0625 64.6873 14.0625H67.0311V24.8438H65.6583L56.9698 16.1552C56.5301 15.7158 55.9339 15.4688 55.3123 15.4688C54.6908 15.4688 54.0945 15.7158 53.6551 16.1552L47.9276 21.8827C46.118 20.352 45.1109 17.8242 45.3983 15.2494C45.7578 12.03 48.083 9.8768 51.1065 9.49711C52.0491 9.37781 52.8265 8.70117 53.0748 7.78383C53.323 6.86648 52.9925 5.89008 52.2385 5.31187C47.7064 1.8368 42.2858 0 36.5623 0C20.2862 0 7.93741 14.8931 11.3576 31.3031ZM22.6217 67.0268C22.6128 67.0273 22.6041 67.0277 22.5955 67.0284C22.5633 67.0303 22.5319 67.0312 22.4998 67.0312C21.2075 67.0312 20.1561 65.9798 20.1561 64.6875C20.1561 63.3952 21.2075 62.3438 22.4998 62.3438C23.788 62.3438 24.8436 63.3825 24.8436 64.6875C24.8436 65.9381 23.8674 66.9659 22.6217 67.0268ZM84.874 29.5312C94.9421 29.5312 103.538 36.9551 104.443 46.4318C105.527 57.799 96.568 67.0312 85.7811 67.0312H83.4373C74.4153 67.0312 67.0555 74.4007 67.0311 83.4593C67.0226 86.565 64.9848 89.2055 62.1781 90.123C61.6362 85.8933 59.765 82.5483 56.5948 80.1558C51.7402 76.4939 44.6984 76.328 39.0734 79.7416C35.2646 82.0523 30.293 81.3527 27.2644 78.0059C25.5943 76.1597 24.7503 73.8049 24.8541 71.3159C27.5919 70.3474 29.5311 67.7386 29.5311 64.6875C29.5311 64.4006 29.5119 64.1163 29.4776 63.8346C31.0993 62.8673 32.9743 62.3438 34.8865 62.3438H76.4061C81.5755 62.3438 85.7811 58.1381 85.7811 52.9688C85.7811 47.7994 81.5755 43.5938 76.4061 43.5938C76.4061 43.5938 72.0352 43.5994 71.7186 43.6029V38.9062H74.0623C75.0101 38.9062 75.8649 38.3351 76.2277 37.4595C76.5905 36.5836 76.3899 35.5755 75.7198 34.9052L70.3458 29.5312H84.874ZM59.9998 43.5938C58.7054 43.5938 57.6561 44.6433 57.6561 45.9375V48.2812H52.9686V45.9375C52.9686 44.6433 51.9193 43.5938 50.6248 43.5938C49.3304 43.5938 48.2811 44.6433 48.2811 45.9375V48.2812H45.9373C44.6532 48.2812 43.5936 47.2406 43.5936 45.9375V38.9062H67.0311C67.0311 38.9062 67.0292 45.9462 67.029 45.9708C67.0126 47.2448 65.9621 48.2812 64.6873 48.2812H62.3436V45.9375C62.3436 44.6433 61.2943 43.5938 59.9998 43.5938ZM62.3436 52.9688V57.6562H48.2811V52.9688H62.3436ZM71.7186 24.8438V14.0625H76.4061V24.8438H71.7186ZM74.0623 5.65852L77.779 9.375H70.3456L74.0623 5.65852ZM71.3058 48.2803C71.7603 48.273 76.4061 48.2672 76.4061 48.2672C78.9908 48.2672 81.0936 50.3841 81.0936 52.9688C81.0936 55.5534 78.9908 57.6562 76.4061 57.6562H67.0311V52.5628C69.0132 51.8545 70.5938 50.2629 71.3058 48.2803ZM55.3123 21.1273L68.404 34.2188H42.2206L55.3123 21.1273ZM36.5623 4.6875C39.7262 4.6875 42.7765 5.37328 45.5656 6.69445C42.8792 8.47359 41.1207 11.3182 40.7396 14.7291C40.287 18.7835 41.7868 22.6791 44.5995 25.2108L34.9051 34.9052C34.2348 35.5755 34.0344 36.5836 34.3972 37.4595C34.76 38.3351 35.6145 38.9062 36.5626 38.9062H38.9063V45.9375C38.9063 46.2075 38.9265 46.4747 38.9567 46.74C36.6748 46.998 34.3458 46.8853 32.0075 46.399C24.058 44.7469 17.6035 38.2962 15.9469 30.3469C13.1403 16.8813 23.2325 4.6875 36.5623 4.6875Z" stroke="#54452E" stroke-width="2" mask="url(#path-4-inside-1_244_639)"/>
<path d="M114.812 23.4375V23.9375H115.312H117.656C118.675 23.9375 119.5 24.7631 119.5 25.7812C119.5 26.7994 118.675 27.625 117.656 27.625H115.312H114.812V28.125V30.4688C114.812 31.4869 113.987 32.3125 112.969 32.3125C111.95 32.3125 111.125 31.4869 111.125 30.4688V28.125V27.625H110.625H108.281C107.263 27.625 106.438 26.7994 106.438 25.7812C106.438 24.7631 107.263 23.9375 108.281 23.9375H110.625H111.125V23.4375V21.0938C111.125 20.0756 111.95 19.25 112.969 19.25C113.987 19.25 114.812 20.0756 114.812 21.0938V23.4375Z" stroke="#54452E"/>
<path d="M90.4688 85.2812H89.9688V85.7812V88.125C89.9688 89.1431 89.1433 89.9688 88.125 89.9688C87.1067 89.9688 86.2812 89.1431 86.2812 88.125V85.7812V85.2812H85.7812H83.4375C82.4192 85.2812 81.5938 84.4556 81.5938 83.4375C81.5938 82.4194 82.4192 81.5938 83.4375 81.5938H85.7812H86.2812V81.0938V78.75C86.2812 77.7319 87.1067 76.9062 88.125 76.9062C89.1433 76.9062 89.9688 77.7319 89.9688 78.75V81.0938V81.5938H90.4688H92.8125C93.8308 81.5938 94.6562 82.4194 94.6562 83.4375C94.6562 84.4556 93.8308 85.2812 92.8125 85.2812H90.4688Z" stroke="#54452E"/>
<path d="M4.6875 48.7812H5.1875V48.2812V45.9375C5.1875 44.9194 6.01297 44.0938 7.03125 44.0938C8.04953 44.0938 8.875 44.9194 8.875 45.9375V48.2812V48.7812H9.375H11.7188C12.737 48.7812 13.5625 49.6069 13.5625 50.625C13.5625 51.6431 12.737 52.4688 11.7188 52.4688H9.375H8.875V52.9688V55.3125C8.875 56.3306 8.04953 57.1562 7.03125 57.1562C6.01297 57.1562 5.1875 56.3306 5.1875 55.3125V52.9688V52.4688H4.6875H2.34375C1.32547 52.4688 0.5 51.6431 0.5 50.625C0.5 49.6069 1.32547 48.7812 2.34375 48.7812H4.6875Z" stroke="#54452E"/>
<path d="M90.9688 7.03125C90.9688 3.43036 93.8991 0.5 97.5 0.5C101.101 0.5 104.031 3.43036 104.031 7.03125C104.031 10.6321 101.101 13.5625 97.5 13.5625C93.8991 13.5625 90.9688 10.6321 90.9688 7.03125ZM94.6562 7.03125C94.6562 8.59974 95.9315 9.875 97.5 9.875C99.0685 9.875 100.344 8.59974 100.344 7.03125C100.344 5.46276 99.0685 4.1875 97.5 4.1875C95.9315 4.1875 94.6562 5.46276 94.6562 7.03125Z" stroke="#54452E"/>
<path d="M33.0156 112.969C33.0156 113.987 32.1902 114.812 31.1719 114.812C30.1536 114.812 29.3281 113.987 29.3281 112.969C29.3281 111.95 30.1536 111.125 31.1719 111.125C32.1902 111.125 33.0156 111.95 33.0156 112.969Z" stroke="#54452E"/>
<path d="M113.97 110.849L114.108 111.125H114.417H117.656C118.675 111.125 119.5 111.951 119.5 112.969C119.5 113.987 118.675 114.812 117.656 114.812H70.3458H70.1387L69.9922 114.959L65.9912 118.96C65.6455 119.306 65.1764 119.5 64.6875 119.5H55.3125C54.8236 119.5 54.3545 119.306 54.0088 118.96L50.0078 114.959L49.8613 114.812H49.6542H41.7188C40.7005 114.812 39.875 113.987 39.875 112.969C39.875 111.951 40.7005 111.125 41.7188 111.125H50.625C51.1139 111.125 51.583 111.319 51.9287 111.665L55.9297 115.666L56.0762 115.812H56.2833H63.7167H63.9238L64.0703 115.666L68.0713 111.665C68.417 111.319 68.8861 111.125 69.375 111.125H109.177H109.986L109.624 110.401L107.274 105.703L107.138 105.431L106.835 105.427C100.347 105.327 93.3856 104.571 87.9483 103.364L87.9425 103.363C84.8338 102.712 82.6483 102.208 80.9746 101.822C80.15 101.632 79.4496 101.471 78.8243 101.335C76.9322 100.922 75.7677 100.75 74.0625 100.75C70.8078 100.75 67.7869 101.574 65.5638 102.908C63.3552 104.233 61.8438 106.125 61.8438 108.281C61.8438 109.299 61.0183 110.125 60 110.125C58.9817 110.125 58.1562 109.299 58.1562 108.281C58.1562 106.125 56.6448 104.233 54.4362 102.908C52.2131 101.574 49.1922 100.75 45.9375 100.75C44.233 100.75 43.0673 100.922 41.1744 101.335C40.5485 101.471 39.8475 101.633 39.0222 101.823C37.3484 102.209 35.1634 102.712 32.0568 103.363L32.0568 103.363L32.051 103.364C26.6142 104.57 19.6526 105.327 13.1651 105.426L12.8614 105.431L12.7256 105.703L10.3762 110.401L10.0144 111.125H10.8234H20.625C21.6433 111.125 22.4688 111.951 22.4688 112.969C22.4688 113.987 21.6433 114.812 20.625 114.812H2.34375C1.32547 114.812 0.5 113.987 0.5 112.969C0.5 111.951 1.32547 111.125 2.34375 111.125H5.58281H5.89183L6.03003 110.849L10.0697 102.769C10.3821 102.145 11.0204 101.75 11.7188 101.75C18.2424 101.75 25.7212 100.991 31.2496 99.7648C34.1012 99.174 36.2485 98.6775 37.9638 98.2808C38.9016 98.0639 39.7102 97.8769 40.4343 97.7207C42.4952 97.2761 43.9445 97.0625 45.9375 97.0625C51.8653 97.0625 56.8876 99.2403 59.6176 102.482L60 102.936L60.3824 102.482C63.1124 99.2403 68.1347 97.0625 74.0625 97.0625C76.0577 97.0625 77.5158 97.2779 79.5807 97.7235C80.3071 97.8803 81.1177 98.0678 82.0566 98.285C83.7705 98.6815 85.9121 99.1769 88.75 99.7648C94.2788 100.991 101.758 101.75 108.281 101.75C108.98 101.75 109.618 102.145 109.93 102.769L113.97 110.849Z" stroke="#54452E"/>
</g>
<defs>
<clipPath id="clip0_244_639">
<rect width="120" height="120" fill="white"/>
</clipPath>
</defs>
</svg>
